**ABCDEFGHIJKLMNOPQRSTUVWXYZabcdefghijklmnopqrstuvwxyz**************************
**PARASOLID !"#$%&'()*+,-./:;<=>?@[\]^_`{|}~0123456789**************************
**PART1;
MC=AMD64;
MC_MODEL=Intel64 Family 6 Model 154 Stepping 3, GenuineIntel;
MC_ID=unknown;
OS=Windows_NT;
OS_RELEASE=unknown;
FRU=Parasolid Version 36.1, build 212,  6-28-2024;
APPL=SOLIDWORKS 2025-2024260;
SITE=;
USER=unknown;
FORMAT=text;
GUISE=transmit;
KEY=010 40mmÍ­;
FILE=010 40mmÍ­Öů.x;
DATE=Sat Nov 29 13:58:27 2025;
**PART2;
SCH=SCH_3601212_36001;
USFLD_SIZE=0;
**PART3;
**END_OF_HEADER*****************************************************************
T51 : TRANSMIT FILE created by modeller version 360121223 SCH_3601212_36001_1300
6231 0 12 36 CCCI7 lattice222 0 CCCI4 mesh1006 0 I8 polyline1008 0 CCCCCCCDI5 ow
ner1040 0 CCCI16 boundary_lattice222 0 CCCI13 boundary_mesh1006 0 I17 boundary_p
olyline1008 0 CCCA16 index_map_offset0 0 1 dA9 index_map82 0 A17 node_id_index_m
ap82 0 A20 schema_embedding_map82 0 A5 child12 0 A14 lowest_node_id0 0 1 dA16 me
sh_offset_data206 0 Z1 160 2 3 0 0 0 0 0 0 0 1e3 1e-8 0 4 0 1 0 1 1 5 0 6 7 0 0
 0 8 9 0 0 0 0 0 0 0 0 81 255 2 2 152 10 1 11 0 0 0 0 12 70 11 CI9 list_type0 0
 1 uI10 notransmit0 0 1 lCCCDCCDI12 finger_index0 0 1 dI12 finger_block1012 0 CZ
3 0 4 T1 0 0 11 20 1 13 13 13 255 5 31 0 1 0 14 0 0 15 0 51 255 6 30 0 16 17 0 0
 -0 0 .04 0 0 -1 .003 -1 0 0 31 255 7 25 0 18 19 0 0 +0 0 0 0 0 1 1 0 0 .003 19
 9 CCCCCCI5 frame230 0 CA5 owner12 0 Z8 9 0 1 15 0 20 0 V0 16 255 9 5 0 ?21 0 18
 19 0 0 1 17 255 21 0 22 21 21 0 23 9 0 0 +16 18 20 0 ?24 9 25 7 0 0 1 31 19 7 0
 9 26 7 0 +0 0 .04 0 0 1 1 0 0 .003 31 26 73 0 27 28 19 0 +0 0 0 0 0 1 1 0 0 .00
15 16 27 51 0 ?29 25 0 26 0 0 1 31 28 74 0 25 0 26 0 +0 0 .04 0 0 1 1 0 0 .0015
 16 25 54 0 ?30 18 27 28 0 0 1 17 30 0 31 30 30 0 32 25 0 0 +15 255 31 60 0 30 3
3 34 17 32 0 35 32 32 0 30 25 0 0 -15 35 45 0 32 14 0 14 255 14 48 36 ?37 0 22 5
 38 +0 0 37 0 20 81 1 36 154 39 14 40 0 0 41 42 14 37 42 41 ?16 14 43 5 17 -0 0
 16 14 20 15 22 4 0 21 14 35 50 255 38 3 0 14 44 17 0 +0 0 .04 0 0 1 1 0 0 13 20
 10 0 0 0 0 0 0 8 14 51 44 70 0 33 0 38 0 -0 0 .04 0 0 -1 .0015 -1 0 0 50 17 24
 0 37 38 6 0 +0 0 0 0 0 1 1 0 0 14 33 57 45 ?0 16 31 5 44 +0 0 0 16 20 81 1 45 1
58 39 33 46 0 41 47 48 14 16 27 47 ?33 37 49 5 6 -0 0 33 37 20 81 1 47 160 39 16
 50 0 45 0 51 15 49 26 0 23 16 52 17 23 0 49 23 23 0 21 9 0 0 -15 52 28 0 24 16
 0 17 24 0 52 24 24 0 53 18 0 0 +17 53 0 43 53 53 0 24 18 0 0 -15 43 19 0 53 37
 54 15 54 40 0 29 37 0 17 29 0 54 29 29 0 55 27 0 0 +17 55 0 34 55 55 0 29 27 0
 0 -15 34 61 0 55 33 0 80 7 CCCCCDI12 legal_owners0 17 1 lCZ1 39 56 57 9000 1 1
 1 1 1 1 1 1 0 FFFFTFTFFFFFFFFFF1 81 3 50 159 58 16 59 47 46 0 60 0 0 82 255 1 5
1 -356450201 80 3 58 61 62 9000 0 0 0 0 3 5 0 0 0 FFFFTFFFFFFFFFFFF1 1 1 81 1 59
 137 63 16 0 50 64 65 66 81 3 46 157 58 33 65 45 67 50 68 0 0 82 6 60 0 -1251609
646 31211876 0 0 0 81 1 65 138 63 33 0 46 59 0 69 81 3 67 155 58 37 64 41 40 46
 70 0 0 82 6 68 0 -1251609646 31211876 0 0 0 81 1 64 136 63 37 0 67 71 59 72 81
 1 41 156 39 37 67 0 36 45 73 81 3 40 153 58 14 71 36 0 67 74 0 0 82 6 70 0 -125
1609646 31211876 0 0 0 81 1 71 135 63 14 0 40 0 64 75 82 6 74 0 -1251609646 3121
1876 0 0 0 80 1 63 0 76 8001 0 0 0 0 3 5 0 0 0 FFFFTFTFFFFFFFFFF2 83 255 3 75 .7
92156862745098 .819607843137255 .933333333333333 79 255 15 76 SDL/TYSA_COLOUR82
 1 73 -350617497 83 3 72 .792156862745098 .819607843137255 .933333333333333 83 3
 69 .792156862745098 .819607843137255 .933333333333333 83 3 66 .792156862745098
 .819607843137255 .933333333333333 79 18 62 DOWNSTREAM_FACE_ID79 14 57 SWEntUnch
anged82 1 48 -352321433 82 1 42 -350093209 19 15 32 0 1 0 8 5 0 S0 74 4 CI16 ind
ex_map_offset0 0 1 dCCZ20 13 11 0 0 77 50 78 79 47 80 81 82 11 65 2 0 0 0 0 0 0
 0 0 0 81 2 77 37 83 1 0 78 0 0 0 84 81 2 78 92 85 1 77 79 0 0 0 86 81 2 79 93 8
7 1 78 80 0 0 88 0 81 1 80 98 89 1 79 81 0 0 90 81 2 81 105 91 1 80 82 0 0 92 0
 81 2 82 119 93 1 81 11 0 0 0 94 81 2 11 127 95 1 82 2 0 0 0 0 80 2 95 96 97 900
0 0 0 0 0 3 5 0 0 0 FFTFFFFFFFFFFFFFF9 1 79 16 97 BODY_RECIPE_200180 2 93 98 99
 9000 0 0 0 0 3 5 0 0 0 FFTFFFFFFFFFFFFFF9 1 82 1 94 1 79 24 99 BODY_IN_LIGHTWEI
GHT_PERM80 2 91 100 101 8004 0 0 0 0 3 5 0 0 0 FFTFFFFFFFFFFFFFF2 3 83 1 92 1 79
 16 101 SDL/TYSA_DENSITY80 1 89 102 103 9000 1 1 1 1 1 1 1 1 0 FFTFFFFFFFFFFFFFF
1 82 1 90 5958305 79 10 103 BODY_MATCH80 2 87 104 105 9000 0 0 0 0 3 5 0 0 0 FFT
FTTTFFTFFFFFFF10 10 98 255 6 88 20984 21488 45 25289 20280 49 79 23 105 SWIMPLIC
ITBODYNAME_ID_U80 2 85 106 107 9000 0 0 0 0 3 5 0 0 0 FFTFFFFFFFFFFFFFF9 1 82 1
 86 29 79 30 107 LAST_BODY_MODIFYING_FEATURE_ID80 2 83 108 109 9000 0 0 0 0 3 5
 0 0 0 FFTFFFFFFFFFFTFFF9 1 82 1 84 103 79 19 109 ENT_TIME_STAMP_200180 2 10 110
 111 9000 0 0 0 0 3 5 0 0 0 FFTFFFFFFFFFFFFFF9 1 82 1 12 101 79 12 111 ATOM_ID_2
0011 0 
