**ABCDEFGHIJKLMNOPQRSTUVWXYZabcdefghijklmnopqrstuvwxyz**************************
**PARASOLID !"#$%&'()*+,-./:;<=>?@[\]^_`{|}~0123456789**************************
**PART1;
MC=AMD64;
MC_MODEL=Intel64 Family 6 Model 154 Stepping 3, GenuineIntel;
MC_ID=unknown;
OS=Windows_NT;
OS_RELEASE=unknown;
FRU=Parasolid Version 36.1, build 212,  6-28-2024;
APPL=SOLIDWORKS 2025-2024260;
SITE=;
USER=unknown;
FORMAT=text;
GUISE=transmit;
KEY=012 µç³Ø;
FILE=012 µç³Ø¹̀¶¨;
DATE=Sat Nov 29 13:47:43 2025;
**PART2;
SCH=SCH_3601212_36001;
USFLD_SIZE=0;
**PART3;
**END_OF_HEADER*****************************************************************
T51 : TRANSMIT FILE created by modeller version 360121223 SCH_3601212_36001_1300
6231 0 12 36 CCCI7 lattice222 0 CCCI4 mesh1006 0 I8 polyline1008 0 CCCCCCCDI5 ow
ner1040 0 CCCI16 boundary_lattice222 0 CCCI13 boundary_mesh1006 0 I17 boundary_p
olyline1008 0 CCCA16 index_map_offset0 0 1 dA9 index_map82 0 A17 node_id_index_m
ap82 0 A20 schema_embedding_map82 0 A5 child12 0 A14 lowest_node_id0 0 1 dA16 me
sh_offset_data206 0 Z1 3453 2 3 0 0 0 0 0 0 0 1e3 1e-8 0 4 0 1 0 1 1 5 0 6 7 8 0
 0 9 10 11 0 0 0 0 0 0 0 81 255 2 2 3353 12 1 13 0 0 0 0 14 70 11 CI9 list_type0
 0 1 uI10 notransmit0 0 1 lCCCDCCDI12 finger_index0 0 1 dI12 finger_block1012 0
 CZ3 0 4 T1 0 0 11 20 1 15 15 13 255 5 99 0 1 0 16 0 0 17 0 51 255 6 2539 0 18 1
9 0 0 +.00580341595034579 3469446951953615e-33 -.008 0 0 -1 .003 -1 0 0 31 255 7
 2680 0 20 21 0 0 +-.021 .02 0 0 0 1 1 0 0 .006 29 255 8 2076 0 11 22 0 .0099136
003333366 -.0128851302532667 0 19 9 CCCCCCI5 frame230 0 CA5 owner12 0 Z9 33 0 1
 17 0 23 0 V0 16 255 10 2227 0 ?24 0 25 26 0 0 1 18 255 11 2074 0 27 0 28 8 ?1 1
7 255 27 0 29 30 31 11 32 33 0 34 +18 28 2071 0 24 11 35 22 ?1 17 24 0 36 34 37
 28 38 10 0 30 +18 35 2068 0 39 28 40 41 ?1 29 22 2073 0 28 41 8 .00321873132178
557 -.001522959412093605 0 29 41 2070 0 35 42 22 .0099136003333366 -.01288513025
32667 .002 29 42 2067 0 40 43 41 .00321873132178557 -.001522959412093605 .002 18
 40 2065 0 44 35 45 42 ?1 29 43 2052 0 45 46 42 .0154982849618968 .0113621708411
731 0 18 45 2050 0 47 40 48 43 ?1 29 46 2049 0 48 49 43 .0154982849618968 -.0113
621708411731 0 18 48 2047 0 50 45 51 46 ?1 29 49 2046 0 51 52 46 .01549828496189
68 .0113621708411731 .002 18 51 2044 0 53 48 54 49 ?1 29 52 2043 0 54 55 49 .015
4982849618968 -.0113621708411731 .002 18 54 2041 0 56 51 57 52 ?1 29 55 2028 0 5
7 58 52 .00321873132178557 .00152295941209361 0 18 57 2026 0 59 54 60 55 ?1 29 5
8 2025 0 60 61 55 .00991360033333659 .0128851302532667 0 18 60 2023 0 62 57 63 5
8 ?1 29 61 2022 0 63 64 58 .00321873132178557 .00152295941209361 .002 18 63 2020
 0 65 60 66 61 ?1 29 64 2019 0 66 67 61 .00991360033333659 .0128851302532667 .00
2 18 66 2017 0 68 63 69 64 ?1 29 67 2004 0 69 70 64 -.0109226557884117 -.0224770
405879064 0 18 69 2002 0 71 66 72 67 ?1 29 70 2001 0 72 73 67 -.0025846846285602
2 -.00832628534182899 0 18 72 1999 0 74 69 75 70 ?1 29 73 1998 0 75 76 70 -.0109
226557884117 -.0224770405879064 .002 18 75 1996 0 77 72 78 73 ?1 29 76 1995 0 78
 79 73 -.00258468462856022 -.00832628534182899 .002 18 78 1993 0 80 75 81 76 ?1
 29 79 1980 0 81 82 76 .00833797115985149 -.027 0 18 81 1978 0 83 78 84 79 ?1 29
 82 1977 0 84 85 79 -.00833797115985148 -.027 0 18 84 1975 0 86 81 87 82 ?1 29 8
5 1974 0 87 88 82 .00833797115985149 -.027 .002 18 87 1972 0 89 84 90 85 ?1 29 8
8 1971 0 90 91 85 -.00833797115985148 -.027 .002 18 90 1969 0 92 87 93 88 ?1 29
 91 1956 0 93 94 88 .002584684628560225 -.00832628534182899 0 18 93 1954 0 95 90
 96 91 ?1 29 94 1953 0 96 97 91 .0109226557884117 -.0224770405879064 0 18 96 195
1 0 98 93 99 94 ?1 29 97 1950 0 99 100 94 .002584684628560225 -.008326285341829
 .002 18 99 1948 0 101 96 102 97 ?1 29 100 1947 0 102 103 97 .0109226557884117 -
.0224770405879064 .002 18 102 1945 0 104 99 105 100 ?1 29 103 1932 0 105 106 100
 .0109226557884117 .0224770405879064 0 18 105 1930 0 107 102 108 103 ?1 29 106 1
929 0 108 109 103 .00258468462856023 .00832628534182901 0 18 108 1927 0 110 105
 111 106 ?1 29 109 1926 0 111 112 106 .0109226557884117 .0224770405879064 .002 1
8 111 1924 0 113 108 114 109 ?1 29 112 1923 0 114 115 109 .002584684628560225 .0
0832628534182901 .002 18 114 1921 0 116 111 117 112 ?1 29 115 1908 0 117 118 112
 -.00833797115985148 .027 0 18 117 1906 0 119 114 120 115 ?1 29 118 1905 0 120 1
21 115 .00833797115985149 .027 0 18 120 1903 0 122 117 123 118 ?1 29 121 1902 0
 123 124 118 -.00833797115985148 .027 .002 18 123 1900 0 125 120 126 121 ?1 29 1
24 1899 0 126 127 121 .00833797115985149 .027 .002 18 126 1897 0 128 123 129 124
 ?1 29 127 1884 0 129 130 124 -.00258468462856022 .00832628534182901 0 18 129 18
82 0 131 126 132 127 ?1 29 130 1881 0 132 133 127 -.0109226557884117 .0224770405
879064 0 18 132 1879 0 134 129 135 130 ?1 29 133 1878 0 135 136 130 -.0025846846
2856022 .008326285341829 .002 18 135 1876 0 137 132 138 133 ?1 29 136 1875 0 138
 139 133 -.0109226557884117 .0224770405879064 .002 18 138 1873 0 140 135 141 136
 ?1 29 139 1860 0 141 142 136 -.003218731321785575 -.001522959412093605 0 18 141
 1858 0 143 138 144 139 ?1 29 142 1857 0 144 145 139 -.0099136003333366 -.012885
1302532667 0 18 144 1855 0 146 141 147 142 ?1 29 145 1854 0 147 148 142 -.003218
731321785575 -.0015229594120936 .002 18 147 1852 0 149 144 150 145 ?1 29 148 185
1 0 150 151 145 -.0099136003333366 -.0128851302532667 .002 18 150 1849 0 152 147
 153 148 ?1 29 151 1836 0 153 154 148 -.00991360033333661 .0128851302532667 0 18
 153 1834 0 155 150 156 151 ?1 29 154 1833 0 156 157 151 -.003218731321785575 .0
0152295941209361 0 18 156 1831 0 158 153 159 154 ?1 29 157 1830 0 159 160 154 -.
00991360033333661 .0128851302532667 .002 18 159 1828 0 161 156 162 157 ?1 29 160
 1827 0 162 163 157 -.003218731321785575 .00152295941209361 .002 18 162 1825 0 1
64 159 165 160 ?1 29 163 1812 0 165 166 160 -.0154982849618968 -.011362170841173
1 0 18 165 1810 0 167 162 168 163 ?1 29 166 1809 0 168 169 163 -.015498284961896
85 .0113621708411731 0 18 168 1807 0 170 165 171 166 ?1 29 169 1806 0 171 172 16
6 -.0154982849618968 -.0113621708411731 .002 18 171 1804 0 173 168 174 169 ?1 29
 172 1803 0 174 175 169 -.01549828496189685 .0113621708411731 .002 18 174 1801 0
 176 171 177 172 ?1 29 175 757 0 177 178 172 -.0272 .00799999999999982 .002 18 1
77 755 0 179 174 180 175 ?1 29 178 735 0 180 181 175 .0208 .00799999999999982 .0
02 18 180 733 0 182 177 183 178 ?1 29 181 716 0 183 184 178 -.0272 -.00800000000
000018 0 18 183 714 0 185 180 186 181 ?1 29 184 694 0 186 187 181 .0208 -.008000
00000000018 0 18 186 692 0 188 183 189 184 ?1 29 187 431 0 189 190 184 -.032 -.0
28 .002 18 189 429 0 191 186 192 187 ?1 29 190 428 0 192 193 187 -.032 .028 .002
 18 192 426 0 194 189 195 190 ?1 29 193 425 0 195 196 190 -.028 .032 .002 18 195
 423 0 197 192 198 193 ?1 29 196 422 0 198 199 193 .028 .032 .002 18 198 420 0 2
00 195 201 196 ?1 29 199 407 0 201 202 196 .028 -.032 .002 18 201 405 0 203 198
 204 199 ?1 29 202 404 0 204 205 199 -.028 -.032 .002 18 204 402 0 206 201 207 2
02 ?1 29 205 377 0 207 208 202 -.028 .032 0 18 207 375 0 209 204 210 205 ?1 29 2
08 374 0 210 211 205 .028 .032 0 18 210 372 0 212 207 213 208 ?1 29 211 371 0 21
3 214 208 -.032 -.028 0 18 213 369 0 215 210 216 211 ?1 29 214 368 0 216 217 211
 -.032 .028 0 18 216 366 0 218 213 219 214 ?1 29 217 365 0 219 220 214 .028 -.03
2 0 18 219 363 0 221 216 222 217 ?1 29 220 362 0 222 223 217 -.028 -.032 0 18 22
2 360 0 224 219 225 220 ?1 29 223 347 0 225 226 220 .032 .028 .002 18 225 345 0
 227 222 228 223 ?1 29 226 344 0 228 229 223 .032 -.028 .002 18 228 342 0 230 22
5 231 226 ?1 29 229 341 0 231 232 226 .032 .028 0 18 231 339 0 233 228 234 229 ?
1 29 232 338 0 234 235 229 .032 -.028 0 18 234 336 0 236 231 237 232 ?1 29 235 9
91 0 237 238 232 -.0208 .00799999999999982 0 18 237 819 0 239 234 240 235 ?1 29
 238 992 0 240 241 235 -.0208 -.00800000000000018 0 18 240 821 0 242 237 243 238
 ?1 29 241 994 0 243 244 238 -.0272 .00799999999999982 0 18 243 814 0 245 240 24
6 241 ?1 29 244 995 0 246 247 241 .0272 .00799999999999982 0 18 246 906 0 248 24
3 249 244 ?1 29 247 996 0 249 250 244 .0272 -.00800000000000019 0 18 249 908 0 2
51 246 252 247 ?1 29 250 998 0 252 253 247 .0208 .00799999999999982 0 18 252 901
 0 254 249 255 250 ?1 29 253 1004 0 256 257 250 .0208 -.00800000000000018 .002 1
8 256 905 0 258 259 260 253 ?1 29 257 1005 0 260 261 253 .0272 -.008000000000000
19 .002 18 260 904 0 262 256 263 257 ?1 29 261 1006 0 263 264 257 .0272 .0079999
9999999982 .002 18 263 903 0 265 260 0 261 ?1 29 264 1007 0 255 266 261 -.0208 .
00799999999999982 .002 18 255 816 0 267 252 268 264 ?1 29 266 1008 0 268 269 264
 -.0208 -.00800000000000018 .002 18 268 817 0 270 255 259 266 ?1 29 269 1009 0 2
59 0 266 -.0272 -.00800000000000018 .002 18 259 818 0 271 268 256 269 ?1 17 271
 0 272 273 274 259 185 275 0 276 +15 255 272 837 0 271 277 0 17 273 0 272 278 27
1 268 279 280 0 281 +17 274 0 272 271 278 183 282 283 0 284 -17 185 0 285 245 27
6 183 271 275 0 274 -16 275 785 0 ?271 286 287 288 0 0 1 17 276 0 285 185 289 25
9 290 291 0 279 +15 285 841 0 289 292 0 17 289 0 285 276 245 177 293 287 0 290 +
17 290 0 294 295 279 177 276 291 0 0 -16 291 805 0 ?276 280 296 297 0 0 1 17 279
 0 294 290 281 259 273 280 0 0 -15 294 771 0 295 298 299 17 281 0 294 279 295 26
8 300 301 0 0 -16 280 808 0 ?273 301 291 302 0 0 1 16 301 811 0 ?300 287 280 303
 0 0 1 31 302 984 0 280 297 303 0 +-.024 -.00800000000000018 .002 0 0 1 1 0 0 .0
032 30 255 297 985 0 291 304 302 0 +-.0272 .00799999999999982 .002 2168404344971
01e-30 -1 0 30 303 983 0 301 302 305 0 +-.0208 .00799999999999982 .002 -21684043
4497101e-30 1 0 30 305 982 0 306 303 307 0 +-.0208 .00799999999999982 -.008 0 0
 1 16 306 781 0 ?267 308 286 305 0 0 1 30 307 981 0 286 305 288 0 +-.0208 -.0080
0000000000018 -.008 0 0 1 16 286 783 0 ?270 306 275 307 0 0 1 30 288 980 0 275 3
07 309 0 +-.0272 -.00800000000000018 -.008 0 0 1 30 309 979 0 287 288 310 0 +-.0
272 .00799999999999982 -.008 0 0 1 16 287 779 0 ?289 275 301 309 0 0 1 30 310 97
8 0 311 309 312 0 +.0208 .00799999999999982 -.008 0 0 1 16 311 866 0 ?313 314 31
5 310 0 0 1 30 312 977 0 315 310 316 0 +.0208 -.00800000000000018 -.008 0 0 1 16
 315 872 0 ?258 311 317 312 0 0 1 30 316 976 0 317 312 318 0 +.0272 -.0080000000
0000019 -.008 0 0 1 16 317 870 0 ?262 315 319 316 0 0 1 30 318 975 0 319 316 320
 0 +.0272 .00799999999999982 -.008 0 0 1 16 319 868 0 ?265 317 321 318 0 0 1 30
 320 974 0 314 318 322 0 +.0272 .00799999999999982 .002 650521303491302e-30 1 0
 16 314 898 0 ?323 324 311 320 0 0 1 31 322 973 0 324 320 325 0 +.024 -.00800000
000000019 .002 0 0 1 -1 0 0 .0032 16 324 895 0 ?326 327 314 322 0 0 1 30 325 972
 0 327 322 328 0 +.0208 .00799999999999982 .002 -650521303491303e-30 -1 0 16 327
 892 0 ?329 330 324 325 0 0 1 31 328 971 0 330 325 331 0 +.024 .0079999999999998
2 .002 0 0 1 -1 0 0 .0032 16 330 889 0 ?182 296 327 328 0 0 1 31 331 303 0 332 3
28 333 0 +.0275 .0275 .002 0 0 1 -1 0 0 .0016 16 332 244 0 ?334 335 308 331 0 0
 1 31 333 302 0 308 331 336 0 +.0275 .0275 0 0 0 1 -1 0 0 .0016 16 308 241 0 ?33
7 332 306 333 0 0 1 31 336 301 0 338 333 339 0 +-.0275 .0275 .002 0 0 1 1 0 0 .0
016 16 338 208 0 ?340 341 342 336 0 0 1 31 339 300 0 342 336 343 0 +-.0275 .0275
 0 0 0 1 1 0 0 .0016 16 342 205 0 ?344 338 345 339 0 0 1 31 343 299 0 345 339 34
6 0 +.0275 -.0275 .002 0 0 1 -1 0 0 .0016 16 345 226 0 ?347 342 335 343 0 0 1 31
 346 298 0 335 343 348 0 +.0275 -.0275 0 0 0 1 -1 0 0 .0016 16 335 223 0 ?349 34
5 332 346 0 0 1 31 348 297 0 350 346 351 0 +-.0275 -.0275 0 0 0 1 1 0 0 .0016 16
 350 259 0 ?352 353 341 348 0 0 1 31 351 296 0 341 348 354 0 +-.0275 -.0275 .002
 0 0 1 1 0 0 .0016 16 341 262 0 ?355 350 338 351 0 0 1 30 354 7 0 356 351 357 0
 +.032 .032 .002 -1084202172485504e-31 1 0 16 356 343 0 ?358 359 360 354 0 0 1 3
0 357 11 0 359 354 361 0 +-.032 .032 .002 -1 0 0 16 359 421 0 ?362 363 356 357 0
 0 1 30 361 15 0 363 357 364 0 +-.032 .032 .002 1084202172485504e-31 -1 0 16 363
 427 0 ?365 366 359 361 0 0 1 30 364 19 0 366 361 367 0 +-.032 -.032 .002 1 0 0
 16 366 403 0 ?368 369 363 364 0 0 1 30 367 74 0 353 364 370 0 +.032 .032 0 -108
4202172485504e-31 1 0 16 353 337 0 ?371 372 350 367 0 0 1 30 370 73 0 372 367 37
3 0 +-.032 .032 0 -1 0 0 16 372 373 0 ?374 375 353 370 0 0 1 30 373 72 0 375 370
 376 0 +-.032 .032 0 1084202172485504e-31 -1 0 16 375 367 0 ?377 360 372 373 0 0
 1 30 376 71 0 360 373 378 0 +-.032 -.032 0 1 0 0 16 360 361 0 ?379 356 375 376
 0 0 1 30 378 350 0 369 376 380 0 -.032 .028 .002 0 0 -1 16 369 348 0 ?227 381 3
66 378 0 0 1 30 380 356 0 381 378 382 0 +.032 -.028 .002 0 0 -1 16 381 354 0 ?38
3 384 369 380 0 0 1 31 382 380 0 384 380 385 0 -.028 .028 0 0 0 1 1 0 0 .004 16
 384 378 0 ?233 386 381 382 0 0 1 31 385 386 0 386 382 387 0 --.028 .028 0 0 0 1
 1 0 0 .004 16 386 384 0 ?209 388 384 385 0 0 1 31 387 392 0 388 385 389 0 --.02
8 -.028 0 0 0 1 1 0 0 .004 16 388 390 0 ?215 390 386 387 0 0 1 31 389 398 0 390
 387 391 0 -.028 -.028 0 0 0 1 1 0 0 .004 16 390 396 0 ?221 392 388 389 0 0 1 30
 391 410 0 392 389 393 0 +-.028 -.032 .002 0 0 -1 16 392 408 0 ?394 395 390 391
 0 0 1 30 393 416 0 395 391 396 0 -.028 -.032 .002 0 0 -1 16 395 414 0 ?203 397
 392 393 0 0 1 31 396 434 0 397 393 398 0 +.028 .028 .002 0 0 1 1 0 0 .004 16 39
7 432 0 ?200 399 395 396 0 0 1 31 398 440 0 399 396 400 0 +-.028 .028 .002 0 0 1
 1 0 0 .004 16 399 438 0 ?194 401 397 398 0 0 1 31 400 446 0 401 398 402 0 +-.02
8 -.028 .002 0 0 1 1 0 0 .004 16 401 444 0 ?206 403 399 400 0 0 1 31 402 452 0 4
03 400 404 0 +.028 -.028 .002 0 0 1 1 0 0 .004 16 403 450 0 ?230 405 401 402 0 0
 1 30 404 458 0 405 402 406 0 +-.032 .028 .002 0 0 -1 16 405 456 0 ?407 408 403
 404 0 0 1 30 406 464 0 408 404 409 0 --.032 -.028 .002 0 0 -1 16 408 462 0 ?191
 410 405 406 0 0 1 30 409 470 0 410 406 411 0 +.028 .032 .002 0 0 -1 16 410 468
 0 ?412 413 408 409 0 0 1 30 411 476 0 413 409 414 0 --.028 .032 .002 0 0 -1 16
 413 474 0 ?197 415 410 411 0 0 1 30 414 695 0 415 411 416 0 +.0208 -13530843112
6191e-31 0 -650521303491303e-30 -1 0 16 415 693 0 ?417 418 413 414 0 0 1 31 416
 699 0 418 414 419 0 +.024 -.00800000000000019 0 0 0 1 1 0 0 .0032 16 418 697 0
 ?420 421 415 416 0 0 1 30 419 703 0 421 416 422 0 +.0272 -176941794549634e-31 0
 650521303491302e-30 1 0 16 421 701 0 ?423 424 418 419 0 0 1 31 422 706 0 424 41
9 425 0 +.024 .00799999999999982 0 0 0 1 1 0 0 .0032 16 424 704 0 ?426 427 421 4
22 0 0 1 30 425 717 0 427 422 428 0 +-.0272 -589805981832115e-32 0 2168404344971
01e-30 -1 0 16 427 715 0 ?284 283 424 425 0 0 1 31 428 721 0 283 425 429 0 +-.02
4 -.00800000000000018 0 0 0 1 1 0 0 .0032 16 283 719 0 ?282 430 427 428 0 0 1 30
 429 725 0 430 428 431 0 +-.0208 -45102810375397e-31 0 -216840434497101e-30 1 0
 16 430 723 0 ?432 433 283 429 0 0 1 31 431 728 0 433 429 434 0 +-.024 .00799999
999999982 0 0 0 1 1 0 0 .0032 16 433 726 0 ?435 436 430 431 0 0 1 30 434 1135 0
 436 431 437 0 +-.00172312308570681 -.00101530627472907 0 -.507653137364536 .861
561542853407 0 16 436 1832 0 ?438 439 433 434 0 0 1 30 437 1139 0 439 434 440 0
 +-.01549828496189685 -120221129630098e-32 0 775706021186646e-31 -1 0 16 439 180
8 0 ?441 442 436 437 0 0 1 30 440 1142 0 442 437 443 0 +-.001723123085706815 .00
1015306274729072 0 .507653137364536 .861561542853408 0 16 442 1856 0 ?444 445 43
9 440 0 0 1 30 443 1153 0 445 440 446 0 +-3447055360662945e-33 .027 0 -1 -127668
7170615904e-31 0 16 445 1904 0 ?447 448 442 443 0 0 1 30 446 1157 0 448 443 449
 0 +.001723123085706825 .001015306274729076 0 .507653137364536 -.861561542853408
 0 16 448 1880 0 ?450 451 445 446 0 0 1 30 449 1160 0 451 446 452 0 +-.001723123
08570682 .001015306274729076 0 .507653137364536 .861561542853408 0 16 451 1928 0
 ?453 454 448 449 0 0 1 30 452 1171 0 454 449 455 0 +-3447055360662945e-33 -.027
 0 1 -1276687170615904e-31 0 16 454 1976 0 ?456 457 451 452 0 0 1 30 455 1175 0
 457 452 458 0 +-.001723123085706815 -.001015306274729072 0 -.507653137364536 .8
61561542853408 0 16 457 1952 0 ?459 460 454 455 0 0 1 30 458 1178 0 460 455 461
 0 +.001723123085706815 -.001015306274729072 0 -.507653137364536 -.8615615428534
08 0 16 460 2000 0 ?462 463 457 458 0 0 1 30 461 1189 0 463 458 464 0 +.01549828
49618968 360663388890294e-32 0 -2327118063559935e-31 1 0 16 463 2048 0 ?465 466
 460 461 0 0 1 30 464 1193 0 466 461 467 0 +.00172312308570681 -.001015306274729
068 0 -.507653137364536 -.861561542853408 0 16 466 2024 0 ?37 468 463 464 0 0 1
 30 467 1196 0 468 464 469 0 +.001723123085706815 .00101530627472907 0 .50765313
7364536 -.861561542853408 0 16 468 2072 0 ?34 470 466 467 0 0 1 30 469 1815 0 47
0 467 471 0 --.0154982849618968 -.0113621708411731 0 0 0 1 16 470 1813 0 ?167 47
2 468 469 0 0 1 30 471 1821 0 472 469 473 0 +-.01549828496189685 .01136217084117
31 .002 0 0 1 16 472 1819 0 ?474 475 470 471 0 0 1 30 473 1839 0 475 471 476 0 +
-.003218731321785575 .00152295941209361 .002 0 0 1 16 475 1837 0 ?477 478 472 47
3 0 0 1 30 476 1845 0 478 473 479 0 --.0099136003333366 .0128851302532667 0 0 0
 1 16 478 1843 0 ?155 480 475 476 0 0 1 30 479 1863 0 480 476 481 0 +-.009913600
3333366 -.0128851302532667 .002 0 0 1 16 480 1861 0 ?482 483 478 479 0 0 1 30 48
1 1869 0 483 479 484 0 --.003218731321785575 -.001522959412093605 0 0 0 1 16 483
 1867 0 ?143 485 480 481 0 0 1 30 484 1887 0 485 481 486 0 --.00258468462856022
 .008326285341829 0 0 0 1 16 485 1885 0 ?131 487 483 484 0 0 1 30 486 1893 0 487
 484 488 0 +-.0109226557884117 .0224770405879064 .002 0 0 1 16 487 1891 0 ?489 4
90 485 486 0 0 1 30 488 1911 0 490 486 491 0 +.00833797115985149 .027 .002 0 0 1
 16 490 1909 0 ?492 493 487 488 0 0 1 30 491 1917 0 493 488 494 0 --.00833797115
985148 .027 0 0 0 1 16 493 1915 0 ?119 495 490 491 0 0 1 30 494 1935 0 495 491 4
96 0 +.002584684628560225 .00832628534182901 .002 0 0 1 16 495 1933 0 ?497 498 4
93 494 0 0 1 30 496 1941 0 498 494 499 0 -.0109226557884117 .0224770405879064 0
 0 0 1 16 498 1939 0 ?107 500 495 496 0 0 1 30 499 1959 0 500 496 501 0 -.002584
684628560225 -.00832628534182899 0 0 0 1 16 500 1957 0 ?95 502 498 499 0 0 1 30
 501 1965 0 502 499 503 0 +.0109226557884117 -.0224770405879064 .002 0 0 1 16 50
2 1963 0 ?504 505 500 501 0 0 1 30 503 1983 0 505 501 506 0 +-.00833797115985148
 -.027 .002 0 0 1 16 505 1981 0 ?507 508 502 503 0 0 1 30 506 1989 0 508 503 509
 0 -.00833797115985149 -.027 0 0 0 1 16 508 1987 0 ?83 510 505 506 0 0 1 30 509
 2007 0 510 506 511 0 +-.00258468462856022 -.00832628534182899 .002 0 0 1 16 510
 2005 0 ?512 513 508 509 0 0 1 30 511 2013 0 513 509 514 0 --.0109226557884117 -
.0224770405879064 0 0 0 1 16 513 2011 0 ?71 515 510 511 0 0 1 30 514 2031 0 515
 511 516 0 -.00321873132178557 .00152295941209361 0 0 0 1 16 515 2029 0 ?59 517
 513 514 0 0 1 30 516 2037 0 517 514 518 0 +.00991360033333659 .0128851302532667
 .002 0 0 1 16 517 2035 0 ?519 520 515 516 0 0 1 30 518 2055 0 520 516 521 0 +.0
154982849618968 -.0113621708411731 .002 0 0 1 16 520 2053 0 ?522 523 517 518 0 0
 1 30 521 2061 0 523 518 524 0 -.0154982849618968 .0113621708411731 0 0 0 1 16 5
23 2059 0 ?47 525 520 521 0 0 1 30 524 2079 0 525 521 526 0 +.00321873132178557
 -.001522959412093605 .002 0 0 1 16 525 2077 0 ?527 33 523 524 0 0 1 30 526 2085
 0 33 524 528 0 -.0099136003333366 -.0128851302532667 0 0 0 1 16 33 2083 0 ?27 5
29 525 526 0 0 1 31 528 2233 0 529 526 530 0 --.01249828496189682 .0113621708411
731 .002 0 0 1 1 0 0 .003 16 529 2089 0 ?161 531 33 528 0 0 1 31 530 2234 0 531
 528 532 0 +-.01249828496189682 .0113621708411731 0 0 0 1 1 0 0 .003 16 531 2095
 0 ?170 533 529 530 0 0 1 31 532 2235 0 533 530 534 0 --.0058034159503458 433680
868994202e-33 .002 0 0 1 1 0 0 .003 16 533 2101 0 ?149 535 531 532 0 0 1 31 534
 2236 0 535 532 536 0 +-.0058034159503458 433680868994202e-33 0 0 0 1 1 0 0 .003
 16 535 2107 0 ?158 537 533 534 0 0 1 31 536 2237 0 537 534 538 0 --.01249828496
189682 -.0113621708411731 .002 0 0 1 1 0 0 .003 16 537 2113 0 ?173 539 535 536 0
 0 1 31 538 2238 0 539 536 540 0 +-.01249828496189682 -.0113621708411731 0 0 0 1
 1 0 0 .003 16 539 2119 0 ?146 541 537 538 0 0 1 31 540 2239 0 541 538 542 0 --.
00833797115985148 .024 .002 0 0 1 1 0 0 .003 16 541 2125 0 ?125 543 539 540 0 0
 1 31 542 2240 0 543 540 544 0 +-.00833797115985148 .024 0 0 0 1 1 0 0 .003 16 5
43 2131 0 ?134 545 541 542 0 0 1 31 544 2241 0 545 542 546 0 -.00833797115985149
 .024 .002 0 0 1 1 0 0 .003 16 545 2137 0 ?113 547 543 544 0 0 1 31 546 2242 0 5
47 544 548 0 +.00833797115985149 .024 0 0 0 1 1 0 0 .003 16 547 2143 0 ?122 549
 545 546 0 0 1 31 548 2243 0 549 546 550 0 -3469446951953615e-33 .00984924475392
261 .002 0 0 1 1 0 0 .003 16 549 2149 0 ?137 551 547 548 0 0 1 31 550 2244 0 551
 548 552 0 +3469446951953615e-33 .00984924475392261 0 0 0 1 1 0 0 .003 16 551 21
55 0 ?110 553 549 550 0 0 1 31 552 2245 0 553 550 554 0 -.00833797115985149 -.02
4 .002 0 0 1 1 0 0 .003 16 553 2161 0 ?89 555 551 552 0 0 1 31 554 2246 0 555 55
2 556 0 +.00833797115985149 -.024 0 0 0 1 1 0 0 .003 16 555 2167 0 ?98 557 553 5
54 0 0 1 31 556 2247 0 557 554 558 0 --.00833797115985148 -.024 .002 0 0 1 1 0 0
 .003 16 557 2173 0 ?77 559 555 556 0 0 1 31 558 2248 0 559 556 560 0 +-.0083379
7115985148 -.024 0 0 0 1 1 0 0 .003 16 559 2179 0 ?86 561 557 558 0 0 1 31 560 2
249 0 561 558 562 0 -433680868994202e-32 -.0098492447539226 .002 0 0 1 1 0 0 .00
3 16 561 2185 0 ?101 563 559 560 0 0 1 31 562 2250 0 563 560 564 0 +433680868994
202e-32 -.0098492447539226 0 0 0 1 1 0 0 .003 16 563 2191 0 ?74 565 561 562 0 0
 1 31 564 2251 0 565 562 566 0 -.01249828496189682 .0113621708411731 .002 0 0 1
 1 0 0 .003 16 565 2197 0 ?53 567 563 564 0 0 1 31 566 2252 0 567 564 568 0 +.01
249828496189682 .0113621708411731 0 0 0 1 1 0 0 .003 16 567 2203 0 ?62 569 565 5
66 0 0 1 31 568 2253 0 569 566 570 0 -.01249828496189682 -.0113621708411731 .002
 0 0 1 1 0 0 .003 16 569 2209 0 ?39 571 567 568 0 0 1 31 570 2254 0 571 568 572
 0 +.01249828496189682 -.0113621708411731 0 0 0 1 1 0 0 .003 16 571 2215 0 ?50 2
5 569 570 0 0 1 31 572 2255 0 25 570 26 0 -.00580341595034579 3469446951953615e-
33 .002 0 0 1 1 0 0 .003 16 25 2221 0 ?65 10 571 572 0 0 1 31 26 2256 0 10 572 5
73 0 +.00580341595034579 3469446951953615e-33 0 0 0 1 1 0 0 .003 31 573 2656 0 5
74 26 575 0 +.021 .02 0 0 0 1 1 0 0 .006 16 574 2790 0 ?576 577 578 573 0 0 1 31
 575 2664 0 577 573 21 0 +-.021 -.02 0 0 0 1 1 0 0 .006 16 577 2766 0 ?579 580 5
74 575 0 0 1 31 21 2672 0 580 575 7 0 +.021 -.02 0 0 0 1 1 0 0 .006 16 580 2742
 0 ?581 20 577 21 0 0 1 17 581 0 582 581 581 0 583 580 0 0 +16 20 2718 0 ?584 58
5 580 7 0 0 1 17 584 0 586 584 584 0 587 20 0 0 +16 585 1874 0 ?588 589 20 590 0
 0 1 17 588 0 591 131 489 135 592 585 0 593 +16 589 1898 0 ?594 595 585 596 0 0
 1 30 590 1601 0 585 597 596 0 +115196480826585e-32 .003939697901569055 .002 .50
7653137364536 -.861561542853408 0 31 597 2833 0 578 598 590 0 +.021 .02 .002 0 0
 1 1 0 0 .006 30 596 1600 0 589 590 599 0 +-.0135876941188336 .027 .002 -1 -1276
687170615904e-31 0 30 599 1599 0 595 596 600 0 +.01358769411883362 .027 .002 .50
7653137364536 .861561542853407 0 16 595 1922 0 ?601 602 589 599 0 0 1 30 600 159
2 0 602 599 603 0 +.00232136638013831 274367988153804e-32 .002 -.507653137364536
 -.861561542853407 0 16 602 2018 0 ?604 605 595 600 0 0 1 30 603 1591 0 605 600
 606 0 +.0154982849618968 .02236315599720485 .002 -2327118063559935e-31 1 0 16 6
05 2042 0 ?607 608 602 603 0 0 1 30 606 1590 0 608 603 609 0 +.0154982849618968
 -.0223631559972049 .002 .507653137364536 -.861561542853407 0 16 608 2066 0 ?31
 610 605 606 0 0 1 30 609 1583 0 610 606 611 0 +.01358769411883362 -.027 .002 -.
507653137364536 .861561542853407 0 16 610 1946 0 ?612 613 608 609 0 0 1 30 611 1
582 0 613 609 614 0 +-.0135876941188336 -.027 .002 1 -1276687170615904e-31 0 16
 613 1970 0 ?615 616 610 611 0 0 1 30 614 1581 0 616 611 617 0 +115196480826585e
-32 -.00393969790156904 .002 -.507653137364536 -.861561542853408 0 16 616 1994 0
 ?618 619 613 614 0 0 1 30 617 1574 0 619 614 620 0 +-.0154982849618968 -.022363
1559972049 .002 .507653137364536 .861561542853408 0 16 619 1850 0 ?621 622 616 6
17 0 0 1 30 620 1573 0 622 617 623 0 +-.00232136638013832 216840434497101e-32 .0
02 -.507653137364536 .861561542853407 0 16 622 1826 0 ?624 321 619 620 0 0 1 30
 623 1572 0 321 620 304 0 +-.01549828496189685 .02236315599720485 .002 775706021
186646e-31 -1 0 16 321 1802 0 ?625 319 622 623 0 0 1 31 304 986 0 296 623 297 0
 +-.024 .00799999999999982 .002 0 0 1 1 0 0 .0032 16 296 802 0 ?179 291 330 304
 0 0 1 17 179 0 626 293 267 177 295 296 0 289 +15 626 829 0 267 627 0 17 293 0 6
26 239 179 243 289 287 0 435 -17 267 0 626 179 239 255 628 306 0 300 +17 295 0 2
94 281 290 255 179 296 0 0 -17 239 0 626 267 293 237 435 433 0 628 -17 628 0 629
 242 300 237 267 306 0 432 -17 300 0 629 628 270 255 281 301 0 295 +15 629 833 0
 270 630 0 17 270 0 629 300 242 268 278 286 0 273 +17 242 0 629 270 628 240 432
 430 0 278 -17 278 0 272 274 273 240 270 286 0 282 -17 282 0 631 432 284 240 274
 283 0 0 +15 631 712 0 432 632 633 17 432 0 631 435 282 237 242 430 0 0 +17 284
 0 631 282 435 183 245 427 0 0 +17 435 0 631 284 432 243 239 433 0 0 +17 245 0 2
85 289 185 243 284 427 0 293 -14 255 632 48 634 ?635 298 586 5 636 -0 0 635 298
 23 15 633 690 0 423 632 637 17 423 0 633 426 420 246 251 421 0 0 +15 637 170 0
 344 632 638 17 344 0 637 344 344 0 639 342 0 0 +15 638 163 0 349 632 640 17 349
 0 638 349 349 0 641 335 0 0 +15 640 156 0 337 632 642 17 337 0 640 337 337 0 64
3 308 0 0 +15 642 149 0 352 632 644 17 352 0 642 352 352 0 645 350 0 0 +15 644 4
9 0 646 632 0 17 646 0 644 221 233 234 371 353 0 0 -17 221 0 644 647 646 219 236
 390 0 379 +17 233 0 644 646 648 231 212 384 0 371 +17 371 0 649 227 383 231 646
 353 0 650 +15 649 89 0 651 16 0 17 227 0 649 651 371 225 650 369 0 358 +17 383
 0 649 371 651 234 652 381 0 646 +17 650 0 653 212 654 231 227 369 0 0 -15 653 5
59 0 654 655 0 17 212 0 653 656 650 210 233 384 0 412 -17 654 0 653 650 656 225
 200 397 0 0 -17 656 0 653 654 212 198 412 410 0 0 -17 200 0 657 362 358 198 654
 397 0 658 +15 657 4 0 368 298 0 17 362 0 657 194 200 195 658 359 0 659 +17 358
 0 657 200 230 225 651 356 0 654 +17 658 0 660 412 197 198 362 359 0 656 -15 660
 87 0 374 661 0 17 412 0 660 374 658 210 656 410 0 648 +17 197 0 660 658 374 195
 662 413 0 362 +17 374 0 660 197 412 207 648 372 0 662 +17 662 0 663 218 659 207
 197 413 0 0 -15 663 538 0 659 664 0 17 218 0 663 665 662 216 209 386 0 407 -17
 659 0 663 662 665 195 194 399 0 0 -17 665 0 663 659 218 192 407 405 0 0 -17 194
 0 657 365 362 192 659 399 0 666 +17 365 0 657 206 194 189 666 363 0 667 +17 666
 0 668 407 191 192 365 363 0 665 -15 668 85 0 377 669 0 17 407 0 668 377 666 216
 665 405 0 670 +17 191 0 668 666 377 189 671 408 0 365 +17 377 0 668 191 407 213
 670 375 0 671 +17 671 0 672 224 667 213 191 408 0 0 -15 672 517 0 667 673 0 17
 224 0 672 674 671 222 215 388 0 394 -17 667 0 672 671 674 189 206 401 0 0 -17 6
74 0 672 667 224 204 394 392 0 0 -17 206 0 657 368 365 204 667 401 0 675 +17 368
 0 657 230 206 201 675 366 0 676 +17 675 0 677 394 203 204 368 366 0 674 -15 677
 83 0 379 678 0 17 394 0 677 379 675 222 674 392 0 647 +17 203 0 677 675 379 201
 679 395 0 368 +17 379 0 677 203 394 219 647 360 0 679 +17 679 0 680 236 676 219
 203 395 0 0 -15 680 496 0 676 681 0 17 236 0 680 652 679 234 221 390 0 383 -17
 676 0 680 679 652 201 230 403 0 0 -17 652 0 680 676 236 228 383 381 0 0 -17 230
 0 657 358 368 228 676 403 0 651 +17 651 0 649 383 227 228 358 356 0 652 -14 681
 495 682 ?673 683 680 5 684 +0 0 673 683 23 81 1 682 3357 685 681 686 0 634 687
 688 14 673 516 687 ?664 681 672 5 689 +0 0 664 681 23 14 683 211 690 ?681 691 6
92 5 693 -0 0 681 691 23 51 684 507 0 681 694 689 0 +.028 -.028 .002 0 0 -1 .004
 -1 0 0 13 23 34 0 0 0 0 0 0 9 16 14 16 90 695 ?661 0 649 5 694 -0 0 661 0 23 81
 1 695 3363 685 16 696 0 690 697 698 14 661 88 697 ?669 16 660 5 699 -0 0 669 16
 23 50 255 694 94 0 16 699 684 0 +.032 .032 .002 -1 -1084202172485504e-31 0 1084
202172485504e-31 -1 0 50 699 93 0 661 700 694 0 +-.032 .032 .002 0 -1 0 0 0 -1 5
0 700 92 0 669 701 699 0 +-.032 .032 .002 1 1084202172485504e-31 0 -108420217248
5504e-31 1 0 14 669 86 702 ?678 661 668 5 700 -0 0 678 661 23 50 701 91 0 678 63
6 700 0 +-.032 -.032 .002 0 1 0 0 0 1 14 678 84 703 ?298 669 677 5 701 -0 0 298
 669 23 50 636 70 0 632 704 701 0 +0 0 0 0 0 1 1 0 0 50 704 3 0 298 705 636 0 +0
 0 .002 0 0 1 1 0 0 14 298 1 706 ?632 678 707 5 704 +0 0 632 678 23 51 705 284 0
 635 708 704 0 +-.0275 -.0275 0 0 0 1 .0016 1 0 0 14 635 265 709 ?710 632 711 5
 705 -0 0 710 632 23 51 708 289 0 691 693 705 0 +.0275 -.0275 0 0 0 1 .0016 1 0
 0 14 691 229 712 ?683 710 713 5 708 -0 0 683 710 23 51 693 292 0 683 714 708 0
 +-.0275 .0275 0 0 0 1 .0016 1 0 0 51 714 295 0 710 715 693 0 +.0275 .0275 0 0 0
 1 .0016 1 0 0 14 710 247 716 ?691 635 717 5 714 -0 0 691 635 23 50 715 957 0 71
8 719 714 0 +.0272 .00799999999999982 -.008 1 -650521303491302e-30 0 65052130349
1302e-30 1 0 14 718 917 720 ?721 722 723 5 715 -0 0 721 722 23 51 719 958 0 721
 724 715 0 +.024 -.00800000000000019 -.008 0 0 1 .0032 1 0 0 14 721 921 725 ?726
 718 727 5 719 -0 0 726 718 23 50 724 959 0 726 728 719 0 +.0208 .00799999999999
982 -.008 -1 650521303491303e-30 0 -650521303491303e-30 -1 0 14 726 925 729 ?627
 721 730 5 724 -0 0 627 721 23 51 728 960 0 722 731 724 0 +.024 .007999999999999
82 -.008 0 0 1 .0032 1 0 0 14 722 913 732 ?718 655 733 5 728 -0 0 718 655 23 51
 731 961 0 627 734 728 0 +-.024 .00799999999999982 -.008 0 0 1 .0032 1 0 0 14 62
7 826 735 ?630 726 626 5 731 -0 0 630 726 23 50 734 962 0 292 736 731 0 +-.0272
 .00799999999999982 -.008 -1 -216840434497101e-30 0 216840434497101e-30 -1 0 14
 292 838 737 ?738 277 285 5 734 -0 0 738 277 23 51 736 963 0 277 739 734 0 +-.02
4 -.00800000000000018 -.008 0 0 1 .0032 1 0 0 14 277 834 740 ?292 630 272 5 736
 -0 0 292 630 23 50 739 964 0 630 741 736 0 +-.0208 .00799999999999982 -.008 1 2
16840434497101e-30 0 -216840434497101e-30 1 0 14 630 830 742 ?277 627 629 5 739
 -0 0 277 627 23 50 741 1549 0 738 743 739 0 +-.0154982849618968 -.0223631559972
049 -.008 .861561542853408 -.507653137364536 0 .507653137364536 .861561542853408
 0 14 738 1511 744 ?745 292 746 5 741 -0 0 745 292 23 50 743 1550 0 747 748 741
 0 +-.00232136638013832 216840434497101e-32 -.008 .861561542853407 .507653137364
536 0 -.507653137364536 .861561542853407 0 14 747 1519 749 ?750 745 751 5 743 -0
 0 750 745 23 50 748 1551 0 745 752 743 0 +-.01549828496189685 .0223631559972048
5 -.008 -1 -775706021186646e-31 0 775706021186646e-31 -1 0 14 745 1515 753 ?747
 738 754 5 748 -0 0 747 738 23 50 752 1556 0 755 756 748 0 +.01358769411883362 -
.027 -.008 .861561542853407 .507653137364536 0 -.507653137364536 .86156154285340
8 0 14 755 1381 757 ?758 759 760 5 752 -0 0 758 759 23 50 756 1557 0 758 761 752
 0 +-.0135876941188336 -.027 -.008 -1276687170615904e-31 -1 0 1 -127668717061590
4e-31 0 14 758 1385 762 ?763 755 764 5 756 -0 0 763 755 23 50 761 1558 0 759 765
 756 0 +115196480826585e-32 -.00393969790156904 -.008 -.861561542853408 .5076531
37364536 0 -.507653137364536 -.861561542853408 0 14 759 1377 766 ?755 767 768 5
 761 -0 0 755 767 23 50 765 1561 0 769 770 761 0 +.00232136638013831 27436798815
3804e-32 -.008 -.861561542853408 .507653137364536 0 -.507653137364536 -.86156154
2853408 0 14 769 1314 771 ?772 763 773 5 765 -0 0 772 763 23 50 770 1562 0 772 7
74 765 0 +.0154982849618968 .02236315599720485 -.008 1 2327118063559935e-31 0 -2
327118063559935e-31 1 0 14 772 1318 775 ?776 769 777 5 770 -0 0 776 769 23 50 77
4 1563 0 763 778 770 0 +.0154982849618968 -.0223631559972049 -.008 -.86156154285
3408 -.507653137364536 0 .507653137364536 -.861561542853408 0 14 763 1310 779 ?7
69 758 29 5 774 -0 0 769 758 23 50 778 1566 0 780 781 774 0 +115196480826585e-32
 .003939697901569055 -.008 -.861561542853408 -.507653137364536 0 .50765313736453
6 -.861561542853408 0 14 780 1448 782 ?767 750 591 5 778 -0 0 767 750 23 50 781
 1567 0 767 783 778 0 +-.0135876941188336 .027 -.008 -1276687170615904e-31 1 0 -
1 -1276687170615904e-31 0 14 767 1452 784 ?759 780 785 5 781 -0 0 759 780 23 50
 783 1568 0 750 786 781 0 +.01358769411883362 .027 -.008 .861561542853407 -.5076
53137364536 0 .507653137364536 .861561542853408 0 14 750 1444 787 ?780 747 788 5
 783 -0 0 780 747 23 51 786 2821 0 789 790 783 0 +.021 .02 -.008 0 0 1 .006 1 0
 0 14 789 2797 791 ?792 18 793 5 786 -0 0 792 18 23 51 790 2826 0 794 795 786 0
 +.021 -.02 -.008 0 0 1 .006 1 0 0 14 794 2749 796 ?797 792 798 5 790 -0 0 797 7
92 23 51 795 2829 0 797 799 790 0 +-.021 .02 -.008 0 0 1 .006 1 0 0 14 797 2725
 800 ?0 794 801 5 795 -0 0 0 794 23 51 799 2832 0 792 0 795 0 +-.021 -.02 -.008
 0 0 1 .006 1 0 0 14 792 2773 802 ?794 789 803 5 799 -0 0 794 789 23 81 1 802 34
25 685 792 804 0 800 805 806 15 803 2776 0 807 792 808 17 807 0 803 807 807 0 80
9 810 0 0 +15 808 2777 0 811 792 0 17 811 0 808 811 811 0 579 577 0 0 -17 579 0
 812 579 579 0 811 577 0 0 +15 812 2662 0 579 632 813 15 813 2654 0 576 632 36 1
7 576 0 813 576 576 0 814 574 0 0 +15 36 1184 0 465 632 815 17 465 0 36 62 50 45
 816 463 0 817 +15 815 1166 0 456 632 818 17 456 0 815 98 86 81 819 454 0 820 +1
5 818 1148 0 447 632 821 17 447 0 818 134 122 117 822 445 0 823 +15 821 1130 0 4
38 632 631 17 438 0 821 170 158 153 824 436 0 825 +17 170 0 821 441 438 168 825
 531 0 826 +17 158 0 821 438 444 156 827 535 0 824 +17 824 0 751 477 155 156 438
 436 0 828 -17 825 0 829 830 831 153 170 531 0 0 -15 829 2297 0 825 776 0 17 830
 0 829 176 825 159 155 478 0 0 -17 831 0 829 825 176 168 474 472 0 0 -17 176 0 8
29 831 830 174 161 529 0 474 -17 474 0 754 625 826 174 831 472 0 832 +15 754 151
8 0 826 745 0 17 625 0 754 167 474 171 832 321 0 833 +17 826 0 754 474 167 168 4
41 439 0 831 -17 832 0 834 161 173 174 625 321 0 0 -15 834 1213 0 835 298 294 17
 161 0 834 836 832 159 176 529 0 624 +17 173 0 834 832 835 171 152 537 0 625 +17
 835 0 834 173 149 150 621 619 0 0 -17 152 0 837 838 833 150 173 537 0 482 -15 8
37 2339 0 839 840 0 17 838 0 837 839 152 144 482 480 0 0 -17 833 0 837 152 839 1
71 167 470 0 0 -17 482 0 746 621 841 150 838 480 0 835 +15 746 1514 0 621 738 0
 17 621 0 746 143 482 147 835 619 0 842 +17 841 0 746 482 143 144 444 442 0 838
 -17 143 0 746 841 621 141 842 483 0 444 +17 444 0 821 158 146 141 841 442 0 827
 +17 146 0 821 444 441 144 839 539 0 841 +17 827 0 843 842 828 141 158 535 0 0 -
15 843 2318 0 827 844 0 17 842 0 843 164 827 147 143 483 0 0 -17 828 0 843 827 1
64 156 477 475 0 0 -17 164 0 843 828 842 162 149 533 0 477 -17 477 0 751 624 824
 162 828 475 0 836 +15 751 1522 0 624 747 0 17 624 0 751 155 477 159 836 622 0 8
30 +17 836 0 834 149 161 162 624 622 0 0 -17 149 0 834 835 836 147 164 533 0 621
 +17 155 0 751 824 624 153 830 478 0 438 +14 844 2317 805 ?840 776 843 5 845 -0
 0 840 776 23 81 1 805 3427 685 844 846 0 802 847 848 14 840 2338 847 ?849 844 8
37 5 850 -0 0 849 844 23 14 776 2296 851 ?844 772 829 5 852 -0 0 844 772 23 51 8
45 2329 0 844 852 850 0 +-.0058034159503458 433680868994202e-33 -.008 0 0 -1 .00
3 -1 0 0 51 852 2308 0 776 853 845 0 +-.01249828496189682 .0113621708411731 -.00
8 0 0 -1 .003 -1 0 0 51 850 2350 0 840 845 854 0 +-.01249828496189682 -.01136217
08411731 -.008 0 0 -1 .003 -1 0 0 51 854 2371 0 849 850 855 0 +-.008337971159851
48 .024 -.008 0 0 -1 .003 -1 0 0 14 849 2359 856 ?857 840 858 5 854 -0 0 857 840
 23 51 855 2392 0 857 854 859 0 +.00833797115985149 .024 -.008 0 0 -1 .003 -1 0
 0 14 857 2380 860 ?861 849 862 5 855 -0 0 861 849 23 51 859 2413 0 861 855 863
 0 +3469446951953615e-33 .00984924475392261 -.008 0 0 -1 .003 -1 0 0 14 861 2401
 864 ?865 857 866 5 859 -0 0 865 857 23 51 863 2434 0 865 859 867 0 +.0083379711
5985149 -.024 -.008 0 0 -1 .003 -1 0 0 14 865 2422 868 ?869 861 870 5 863 -0 0 8
69 861 23 51 867 2455 0 869 863 871 0 +-.00833797115985148 -.024 -.008 0 0 -1 .0
03 -1 0 0 14 869 2443 872 ?873 865 874 5 867 -0 0 873 865 23 51 871 2476 0 873 8
67 875 0 +433680868994202e-32 -.0098492447539226 -.008 0 0 -1 .003 -1 0 0 14 873
 2464 876 ?877 869 878 5 871 -0 0 877 869 23 51 875 2497 0 877 871 19 0 +.012498
28496189682 .0113621708411731 -.008 0 0 -1 .003 -1 0 0 14 877 2485 879 ?880 873
 881 5 875 -0 0 880 873 23 51 19 2518 0 880 875 6 0 +.01249828496189682 -.011362
1708411731 -.008 0 0 -1 .003 -1 0 0 14 880 2506 882 ?18 877 883 5 19 -0 0 18 877
 23 81 1 882 3447 685 880 884 0 879 885 886 14 18 2527 885 ?789 880 887 5 6 -0 0
 789 880 23 15 883 2507 0 888 880 0 17 888 0 883 32 889 11 50 571 0 0 -17 32 0 8
83 56 888 35 27 33 0 0 -17 889 0 883 888 56 48 522 520 0 0 -17 50 0 36 465 34 48
 888 571 0 816 +17 34 0 36 50 24 11 30 468 0 888 +17 816 0 777 522 47 48 465 463
 0 889 -15 777 1321 0 607 772 0 17 522 0 777 607 816 54 889 520 0 890 +17 47 0 7
77 816 607 45 891 523 0 465 +17 607 0 777 47 522 51 890 605 0 891 +17 891 0 881
 68 817 51 47 523 0 0 -15 881 2486 0 817 877 0 17 68 0 881 892 891 66 53 565 0 5
19 -17 817 0 881 891 892 45 62 567 0 0 -17 892 0 881 817 68 60 519 517 0 0 -17 6
2 0 36 37 465 60 817 567 0 893 +17 37 0 36 24 62 57 893 466 0 38 +17 893 0 773 5
19 59 60 37 466 0 892 -15 773 1317 0 893 769 0 17 519 0 773 604 893 66 892 517 0
 894 +17 59 0 773 893 604 57 895 515 0 37 +17 604 0 773 59 519 63 894 602 0 895
 +17 895 0 887 44 38 63 59 515 0 0 -15 887 2528 0 38 18 0 17 44 0 887 896 895 40
 65 25 0 527 -17 38 0 887 895 896 57 24 10 0 0 -17 896 0 887 38 44 28 527 525 0
 0 -17 527 0 29 31 30 40 896 525 0 897 +15 29 1313 0 31 763 0 17 31 0 29 27 527
 35 897 608 0 32 +17 30 0 29 527 27 28 34 468 0 896 -17 897 0 898 65 39 40 31 60
8 0 0 -15 898 1267 0 897 298 899 17 65 0 898 894 897 63 44 25 0 604 +17 39 0 898
 897 890 35 56 569 0 31 +17 890 0 898 39 53 54 607 605 0 0 -17 56 0 883 889 32 5
4 39 569 0 522 -17 53 0 898 890 894 51 68 565 0 607 +17 894 0 898 53 65 66 604 6
02 0 0 -15 899 1249 0 900 298 901 17 900 0 899 101 77 78 618 616 0 0 -15 901 123
1 0 902 298 834 17 902 0 901 137 113 114 601 595 0 0 -17 137 0 901 592 902 135 1
16 549 0 588 +17 113 0 901 902 903 111 128 545 0 601 +17 601 0 788 107 497 111 9
02 595 0 904 +15 788 1447 0 601 750 0 17 107 0 788 905 601 105 904 498 0 453 +17
 497 0 788 601 905 114 906 495 0 902 +17 904 0 862 128 907 111 107 498 0 0 -15 8
62 2381 0 907 857 0 17 128 0 862 908 904 126 113 545 0 492 -17 907 0 862 904 908
 105 122 547 0 0 -17 908 0 862 907 128 120 492 490 0 0 -17 122 0 818 447 453 120
 907 547 0 822 +17 453 0 818 122 110 105 905 451 0 907 +17 822 0 785 492 119 120
 447 445 0 908 -15 785 1455 0 594 767 0 17 492 0 785 594 822 126 908 490 0 903 +
17 119 0 785 822 594 117 909 493 0 447 +17 594 0 785 119 492 123 903 589 0 909 +
17 909 0 858 140 823 123 119 493 0 0 -15 858 2360 0 823 849 0 17 140 0 858 910 9
09 138 125 541 0 489 -17 823 0 858 909 910 117 134 543 0 0 -17 910 0 858 823 140
 132 489 487 0 0 -17 134 0 818 450 447 132 823 543 0 911 +17 450 0 818 110 134 1
29 911 448 0 912 +17 911 0 591 489 131 132 450 448 0 910 -15 591 1451 0 911 780
 0 17 489 0 591 588 911 138 910 487 0 592 +17 131 0 591 911 588 129 593 485 0 45
0 +17 593 0 866 116 912 135 131 485 0 0 -15 866 2402 0 912 861 0 17 116 0 866 90
6 593 114 137 549 0 497 -17 912 0 866 593 906 129 110 551 0 0 -17 906 0 866 912
 116 108 497 495 0 0 -17 110 0 818 453 450 108 912 551 0 905 +17 905 0 788 497 1
07 108 453 451 0 906 -17 592 0 901 125 137 138 588 585 0 0 -17 125 0 901 903 592
 123 140 541 0 594 +17 903 0 901 113 125 126 594 589 0 0 -17 101 0 899 913 900 9
9 80 561 0 612 +17 77 0 899 900 914 75 92 557 0 618 +17 618 0 768 71 512 75 900
 616 0 915 +15 768 1380 0 618 759 0 17 71 0 768 916 618 69 915 513 0 462 +17 512
 0 768 618 916 78 917 510 0 900 +17 915 0 874 92 918 75 71 513 0 0 -15 874 2444
 0 918 869 0 17 92 0 874 919 915 90 77 557 0 507 -17 918 0 874 915 919 69 86 559
 0 0 -17 919 0 874 918 92 84 507 505 0 0 -17 86 0 815 456 462 84 918 559 0 819 +
17 462 0 815 86 74 69 916 460 0 918 +17 819 0 764 507 83 84 456 454 0 919 -15 76
4 1388 0 615 758 0 17 507 0 764 615 819 90 919 505 0 914 +17 83 0 764 819 615 81
 920 508 0 456 +17 615 0 764 83 507 87 914 613 0 920 +17 920 0 870 104 820 87 83
 508 0 0 -15 870 2423 0 820 865 0 17 104 0 870 921 920 102 89 553 0 504 -17 820
 0 870 920 921 81 98 555 0 0 -17 921 0 870 820 104 96 504 502 0 0 -17 98 0 815 4
59 456 96 820 555 0 922 +17 459 0 815 74 98 93 922 457 0 923 +17 922 0 760 504 9
5 96 459 457 0 921 -15 760 1384 0 922 755 0 17 504 0 760 612 922 102 921 502 0 9
13 +17 95 0 760 922 612 93 924 500 0 459 +17 612 0 760 95 504 99 913 610 0 924 +
17 924 0 878 80 923 99 95 500 0 0 -15 878 2465 0 923 873 0 17 80 0 878 917 924 7
8 101 561 0 512 -17 923 0 878 924 917 93 74 563 0 0 -17 917 0 878 923 80 72 512
 510 0 0 -17 74 0 815 462 459 72 923 563 0 916 +17 916 0 768 512 71 72 462 460 0
 917 -17 913 0 899 89 101 102 612 610 0 0 -17 89 0 899 914 913 87 104 553 0 615
 +17 914 0 899 77 89 90 615 613 0 0 -81 1 885 3449 685 18 925 0 882 926 927 80 7
 CCCCCDI12 legal_owners0 17 1 lCZ1 685 928 929 9000 1 1 1 1 1 1 1 1 0 FFFFTFTFFF
FFFFFFF1 81 3 925 3448 930 18 931 885 884 932 933 0 0 81 1 926 3451 685 655 932
 0 885 934 935 82 255 1 927 -660406156 14 655 558 926 ?722 664 653 5 853 +0 0 72
2 664 23 81 3 932 3450 930 655 936 926 925 937 938 0 0 81 1 934 3453 685 664 937
 0 926 0 939 82 1 935 -644808596 14 664 537 934 ?655 673 663 5 940 +0 0 655 673
 23 81 3 937 3452 930 664 941 934 932 0 942 0 0 82 1 939 -646774676 80 3 930 943
 944 9000 0 0 0 0 3 5 0 0 0 FFFFTFFFFFFFFFFFF1 1 1 81 1 941 3164 945 664 0 937 9
46 936 947 82 6 942 0 -2041394239 31211885 0 0 0 80 1 945 0 948 8001 0 0 0 0 3 5
 0 0 0 FFFFTFTFFFFFFFFFF2 81 1 946 3163 945 673 0 949 950 941 951 81 1 936 3165
 945 655 0 932 941 952 953 83 255 3 947 .792156862745098 .819607843137255 .93333
3333333333 81 1 952 3166 945 722 0 954 936 955 956 83 3 953 .792156862745098 .81
9607843137255 .933333333333333 81 3 954 3384 930 722 952 732 957 958 959 0 0 81
 1 955 3167 945 718 0 960 952 961 962 83 3 956 .792156862745098 .819607843137255
 .933333333333333 81 3 960 3378 930 718 955 720 963 964 965 0 0 81 1 961 3168 94
5 721 0 964 955 966 967 83 3 962 .792156862745098 .819607843137255 .933333333333
333 81 3 964 3380 930 721 961 725 960 957 968 0 0 81 1 966 3169 945 726 0 957 96
1 969 970 83 3 967 .792156862745098 .819607843137255 .933333333333333 81 3 957 3
382 930 726 966 729 964 954 971 0 0 81 1 969 3170 945 627 0 958 966 972 973 83 3
 970 .792156862745098 .819607843137255 .933333333333333 81 3 958 3386 930 627 96
9 735 954 974 975 0 0 81 1 972 3171 945 630 0 976 969 977 978 83 3 973 .79215686
2745098 .819607843137255 .933333333333333 81 3 976 3392 930 630 972 742 979 980
 981 0 0 81 1 977 3172 945 277 0 979 972 982 983 83 3 978 .792156862745098 .8196
07843137255 .933333333333333 81 3 979 3390 930 277 977 740 974 976 984 0 0 81 1
 982 3173 945 292 0 974 977 985 986 83 3 983 .792156862745098 .819607843137255 .
933333333333333 81 3 974 3388 930 292 982 737 958 979 987 0 0 81 1 985 3174 945
 738 0 980 982 988 989 83 3 986 .792156862745098 .819607843137255 .9333333333333
33 81 3 980 3394 930 738 985 744 976 990 991 0 0 81 1 988 3175 945 745 0 992 985
 993 994 83 3 989 .792156862745098 .819607843137255 .933333333333333 81 3 992 33
98 930 745 988 753 990 995 996 0 0 81 1 993 3176 945 747 0 990 988 997 998 83 3
 994 .792156862745098 .819607843137255 .933333333333333 81 3 990 3396 930 747 99
3 749 980 992 999 0 0 81 1 997 3177 945 750 0 1000 993 1001 1002 83 3 998 .79215
6862745098 .819607843137255 .933333333333333 81 3 1000 3416 930 750 997 787 1003
 1004 1005 0 0 81 1 1001 3178 945 780 0 1006 997 1007 1008 83 3 1002 .7921568627
45098 .819607843137255 .933333333333333 81 3 1006 3412 930 780 1001 782 1009 100
3 1010 0 0 81 1 1007 3179 945 767 0 1003 1001 1011 1012 83 3 1008 .7921568627450
98 .819607843137255 .933333333333333 81 3 1003 3414 930 767 1007 784 1006 1000 1
013 0 0 81 1 1011 3180 945 759 0 1014 1007 1015 1016 83 3 1012 .792156862745098
 .819607843137255 .933333333333333 81 3 1014 3404 930 759 1011 766 1017 1018 101
9 0 0 81 1 1015 3181 945 755 0 995 1011 1020 1021 83 3 1016 .792156862745098 .81
9607843137255 .933333333333333 81 3 995 3400 930 755 1015 757 992 1017 1022 0 0
 81 1 1020 3182 945 758 0 1017 1015 1023 1024 83 3 1021 .792156862745098 .819607
843137255 .933333333333333 81 3 1017 3402 930 758 1020 762 995 1014 1025 0 0 81
 1 1023 3183 945 763 0 1009 1020 1026 1027 83 3 1024 .792156862745098 .819607843
137255 .933333333333333 81 3 1009 3410 930 763 1023 779 1028 1006 1029 0 0 81 1
 1026 3184 945 769 0 1018 1023 1030 1031 83 3 1027 .792156862745098 .81960784313
7255 .933333333333333 81 3 1018 3406 930 769 1026 771 1014 1028 1032 0 0 81 1 10
30 3185 945 772 0 1028 1026 1033 1034 83 3 1031 .792156862745098 .81960784313725
5 .933333333333333 81 3 1028 3408 930 772 1030 775 1018 1009 1035 0 0 81 1 1033
 3186 945 776 0 1036 1030 1037 1038 83 3 1034 .792156862745098 .819607843137255
 .933333333333333 81 3 1036 3430 930 776 1033 851 1039 1040 1041 0 0 81 1 1037 3
187 945 844 0 846 1033 1042 1043 83 3 1038 .792156862745098 .819607843137255 .93
3333333333333 81 3 846 3426 930 844 1037 805 804 1039 1044 0 0 81 1 1042 3188 94
5 840 0 1039 1037 1045 1046 83 3 1043 .792156862745098 .819607843137255 .9333333
33333333 81 3 1039 3428 930 840 1042 847 846 1036 1047 0 0 81 1 1045 3189 945 84
9 0 1040 1042 1048 1049 83 3 1046 .792156862745098 .819607843137255 .93333333333
3333 81 3 1040 3432 930 849 1045 856 1036 1050 1051 0 0 81 1 1048 3190 945 857 0
 1050 1045 1052 1053 83 3 1049 .792156862745098 .819607843137255 .93333333333333
3 81 3 1050 3434 930 857 1048 860 1040 1054 1055 0 0 81 1 1052 3191 945 861 0 10
54 1048 1056 1057 83 3 1053 .792156862745098 .819607843137255 .933333333333333 8
1 3 1054 3436 930 861 1052 864 1050 1058 1059 0 0 81 1 1056 3192 945 865 0 1058
 1052 1060 1061 83 3 1057 .792156862745098 .819607843137255 .933333333333333 81
 3 1058 3438 930 865 1056 868 1054 1062 1063 0 0 81 1 1060 3193 945 869 0 1062 1
056 1064 1065 83 3 1061 .792156862745098 .819607843137255 .933333333333333 81 3
 1062 3440 930 869 1060 872 1058 1066 1067 0 0 81 1 1064 3194 945 873 0 1066 106
0 1068 1069 83 3 1065 .792156862745098 .819607843137255 .933333333333333 81 3 10
66 3442 930 873 1064 876 1062 1070 1071 0 0 81 1 1068 3195 945 877 0 1070 1064 1
072 1073 83 3 1069 .792156862745098 .819607843137255 .933333333333333 81 3 1070
 3444 930 877 1068 879 1066 884 1074 0 0 81 1 1072 3196 945 880 0 884 1068 931 1
075 83 3 1073 .792156862745098 .819607843137255 .933333333333333 81 3 884 3446 9
30 880 1072 882 1070 925 1076 0 0 81 1 931 3197 945 18 0 925 1072 1077 1078 83 3
 1075 .792156862745098 .819607843137255 .933333333333333 81 1 1077 3198 945 789
 0 1004 931 1079 1080 83 3 1078 .792156862745098 .819607843137255 .9333333333333
33 81 3 1004 3418 930 789 1077 791 1000 1081 1082 0 0 81 1 1079 3199 945 792 0 8
04 1077 1083 1084 83 3 1080 .792156862745098 .819607843137255 .933333333333333 8
1 3 804 3424 930 792 1079 802 1085 846 1086 0 0 81 1 1083 3200 945 794 0 1081 10
79 1087 1088 83 3 1084 .792156862745098 .819607843137255 .933333333333333 81 3 1
081 3420 930 794 1083 796 1004 1085 1089 0 0 81 1 1087 3201 945 797 0 1085 1083
 0 1090 83 3 1088 .792156862745098 .819607843137255 .933333333333333 81 3 1085 3
422 930 797 1087 800 1081 804 1091 0 0 83 3 1090 .792156862745098 .8196078431372
55 .933333333333333 81 1 800 3423 685 797 1085 0 796 802 1092 82 6 1091 0 -13301
16914 31211911 0 0 0 81 1 796 3421 685 794 1081 0 791 800 1093 82 1 1092 1629159
543 81 1 791 3419 685 789 1004 0 787 796 1094 82 1 1093 1628635255 81 1 787 3417
 685 750 1000 0 784 791 1095 82 1 1094 1627586679 81 1 784 3415 685 767 1003 0 7
82 787 1096 82 1 1095 -980746124 81 1 782 3413 685 780 1006 0 779 784 1097 82 1
 1096 -981991308 81 1 779 3411 685 763 1009 0 775 782 1098 82 1 1097 -981204876
 81 1 775 3409 685 772 1028 0 771 779 1099 82 1 1098 -976027532 81 1 771 3407 68
5 769 1018 0 766 775 1100 82 1 1099 -977272716 81 1 766 3405 685 759 1014 0 762
 771 1101 82 1 1100 -976486284 81 1 762 3403 685 758 1017 0 757 766 1102 82 1 11
01 -978386828 81 1 757 3401 685 755 995 0 753 762 1103 82 1 1102 -979632012 81 1
 753 3399 685 745 992 0 749 757 1104 82 1 1103 -978845580 81 1 749 3397 685 747
 990 0 744 753 1105 82 1 1104 -983564172 81 1 744 3395 685 738 980 0 742 749 110
6 82 1 1105 -984350604 81 1 742 3393 685 630 976 0 740 744 1107 82 1 1106 -98310
5420 81 1 740 3391 685 277 979 0 737 742 1108 82 1 1107 -961413009 81 1 737 3389
 685 292 974 0 735 740 1109 82 1 1108 -962199441 81 1 735 3387 685 627 958 0 732
 737 1110 82 1 1109 -962985873 81 1 732 3385 685 722 954 0 729 735 1111 82 1 111
0 -960954257 81 1 729 3383 685 726 957 0 725 732 1112 82 1 1111 -964099985 81 1
 725 3381 685 721 964 0 720 729 1113 82 1 1112 -966131601 81 1 720 3379 685 718
 960 0 716 725 1114 82 1 1113 -965345169 81 1 716 3377 685 710 963 0 712 720 111
5 82 1 1114 -964558737 81 3 963 3376 930 710 1116 716 1117 960 1118 0 0 81 1 712
 3375 685 691 1117 0 709 716 1119 82 1 1115 -807141270 81 3 1117 3374 930 691 11
20 712 1121 963 1122 0 0 81 1 709 3373 685 635 1121 0 706 712 1123 82 1 1119 -81
1073430 81 3 1121 3372 930 635 1124 709 1125 1117 1126 0 0 81 1 706 3371 685 298
 1125 0 703 709 1127 82 1 1123 -819003286 81 3 1125 3370 930 298 1128 706 1129 1
121 1130 0 0 81 1 703 3369 685 678 1129 0 702 706 1131 82 1 1127 -1828519817 81
 3 1129 3368 930 678 1132 703 1133 1125 1134 0 0 81 1 702 3367 685 669 1133 0 69
7 703 1135 82 1 1131 -76021652 81 3 1133 3366 930 669 1136 702 1137 1129 1138 0
 0 81 1 697 3365 685 661 1137 0 695 702 1139 82 1 1135 -75759508 81 3 1137 3364
 930 661 1140 697 696 1133 1141 0 0 82 1 1139 -75497364 81 1 1140 3153 945 661 0
 1137 1142 1136 1143 81 3 696 3362 930 16 1142 695 1144 1137 1145 0 0 82 6 1141
 0 -2041394239 31211885 0 0 0 81 1 1142 3152 945 16 0 696 0 1140 1146 81 3 1144
 3360 930 683 1147 690 949 696 1148 0 0 82 6 1145 0 -2041394239 31211885 0 0 0 8
1 1 1147 3161 945 683 0 1144 1120 950 1149 81 1 690 3361 685 683 1144 0 687 695
 1150 81 3 949 3358 930 673 946 687 686 1144 1151 0 0 82 6 1148 0 -2127454133 31
211885 0 0 0 81 1 687 3359 685 673 949 0 682 690 1152 81 3 686 3356 930 681 950
 682 1153 949 1154 0 0 82 6 1151 0 -2041394239 31211885 0 0 0 81 1 950 3162 945
 681 0 686 1147 946 1155 81 3 1153 3354 930 632 1156 634 0 686 1157 0 0 82 6 115
4 0 -2041394239 31211885 0 0 0 81 1 1156 3157 945 632 0 1153 1128 1124 1158 81 1
 634 3355 685 632 1153 0 0 682 1159 82 6 1157 0 -1330116914 31211911 0 0 0 82 1
 1159 -1826094985 81 1 1128 3156 945 298 0 1125 1132 1156 1160 81 1 1124 3158 94
5 635 0 1121 1156 1116 1161 83 3 1158 .792156862745098 .819607843137255 .9333333
33333333 81 1 1116 3159 945 710 0 963 1124 1120 1162 83 3 1161 .792156862745098
 .819607843137255 .933333333333333 81 1 1120 3160 945 691 0 1117 1116 1147 1163
 83 3 1162 .792156862745098 .819607843137255 .933333333333333 83 3 1163 .7921568
62745098 .819607843137255 .933333333333333 81 1 1132 3155 945 678 0 1129 1136 11
28 1164 83 3 1160 .792156862745098 .819607843137255 .933333333333333 81 1 1136 3
154 945 669 0 1133 1140 1132 1165 83 3 1164 .792156862745098 .819607843137255 .9
33333333333333 83 3 1165 .792156862745098 .819607843137255 .933333333333333 83 3
 1155 .792156862745098 .819607843137255 .933333333333333 82 1 1152 -648740756 82
 1 1150 -815005590 83 3 1149 .792156862745098 .819607843137255 .933333333333333
 83 3 1146 .792156862745098 .819607843137255 .933333333333333 83 3 1143 .7921568
62745098 .819607843137255 .933333333333333 82 6 1138 0 -2041394239 31211885 0 0
 0 82 6 1134 0 -2041394239 31211885 0 0 0 82 6 1130 0 -1330116914 31211911 0 0 0
 82 6 1126 0 -2127454133 31211885 0 0 0 82 6 1122 0 -2127454133 31211885 0 0 0 8
2 6 1118 0 -2127454133 31211885 0 0 0 82 6 1089 0 -1330116914 31211911 0 0 0 82
 6 1086 0 -1330116914 31211911 0 0 0 82 6 1082 0 -1330116914 31211911 0 0 0 82 6
 1076 0 -1811210709 31211911 0 0 0 81 1 879 3445 685 877 1070 0 876 882 1166 82
 6 1074 0 -1811210709 31211911 0 0 0 81 1 876 3443 685 873 1066 0 872 879 1167 8
2 1 1166 -664338316 81 1 872 3441 685 869 1062 0 868 876 1168 82 1 1167 -6663043
96 81 1 868 3439 685 865 1058 0 864 872 1169 82 1 1168 -668270476 81 1 864 3437
 685 861 1054 0 860 868 1170 82 1 1169 -670236556 81 1 860 3435 685 857 1050 0 8
56 864 1171 82 1 1170 -672202636 81 1 856 3433 685 849 1040 0 851 860 1172 82 1
 1171 -674168716 81 1 851 3431 685 776 1036 0 847 856 1173 82 1 1172 -676134796
 81 1 847 3429 685 840 1039 0 805 851 1174 82 1 1173 -682033036 82 1 1174 -67810
0876 82 6 1071 0 -1811210709 31211911 0 0 0 82 6 1067 0 -1811210709 31211911 0 0
 0 82 6 1063 0 -1811210709 31211911 0 0 0 82 6 1059 0 -1811210709 31211911 0 0 0
 82 6 1055 0 -1811210709 31211911 0 0 0 82 6 1051 0 -1811210709 31211911 0 0 0 8
2 6 1047 0 -1811210709 31211911 0 0 0 82 6 1044 0 -1811210709 31211911 0 0 0 82
 6 1041 0 -1811210709 31211911 0 0 0 82 6 1035 0 -1811210709 31211911 0 0 0 82 6
 1032 0 -1811210709 31211911 0 0 0 82 6 1029 0 -1811210709 31211911 0 0 0 82 6 1
025 0 -1811210709 31211911 0 0 0 82 6 1022 0 -1811210709 31211911 0 0 0 82 6 101
9 0 -1811210709 31211911 0 0 0 82 6 1013 0 -1811210709 31211911 0 0 0 82 6 1010
 0 -1811210709 31211911 0 0 0 82 6 1005 0 -1811210709 31211911 0 0 0 82 6 999 0
 -1811210709 31211911 0 0 0 82 6 996 0 -1811210709 31211911 0 0 0 82 6 991 0 -18
11210709 31211911 0 0 0 82 6 987 0 817437861 31211911 0 0 0 82 6 984 0 817437861
 31211911 0 0 0 82 6 981 0 817437861 31211911 0 0 0 82 6 975 0 817437861 3121191
1 0 0 0 82 6 971 0 817437861 31211911 0 0 0 82 6 968 0 817437861 31211911 0 0 0
 82 6 965 0 817437861 31211911 0 0 0 82 6 959 0 817437861 31211911 0 0 0 83 3 95
1 .792156862745098 .819607843137255 .933333333333333 79 255 15 948 SDL/TYSA_COLO
UR79 18 944 DOWNSTREAM_FACE_ID51 940 549 0 664 689 853 0 +-.028 .028 .002 0 0 -1
 .004 -1 0 0 51 689 528 0 673 684 940 0 +-.028 -.028 .002 0 0 -1 .004 -1 0 0 51
 853 570 0 655 940 852 0 +.028 .028 .002 0 0 -1 .004 -1 0 0 82 6 938 0 -20413942
39 31211885 0 0 0 82 6 933 0 -1811210709 31211911 0 0 0 79 14 929 SWEntUnchanged
82 1 886 -662372236 82 1 848 -680066956 17 441 0 821 146 170 165 826 439 0 839 +
17 839 0 837 833 838 165 146 539 0 0 -17 167 0 754 826 625 165 833 470 0 441 +17
 814 0 1175 814 814 0 576 574 0 0 -15 1175 2801 0 814 789 0 17 809 0 1176 809 80
9 0 807 810 0 0 -16 810 2770 0 ?807 1177 0 1178 0 0 1 16 1177 2746 0 ?1179 1180
 810 598 0 0 1 31 1178 2840 0 810 0 1181 0 +-.021 -.02 .002 0 0 1 1 0 0 .006 31
 1181 2838 0 1180 1178 598 0 +-.021 .02 .002 0 0 1 -1 0 0 .006 16 1180 2722 0 ?1
182 578 1177 1181 0 0 1 31 598 2836 0 1177 1181 597 0 +.021 -.02 .002 0 0 1 -1 0
 0 .006 17 1182 0 801 1182 1182 0 1183 1180 0 0 +16 578 2794 0 ?1184 574 1180 59
7 0 0 1 17 1184 0 793 1184 1184 0 1185 578 0 0 +15 793 2800 0 1184 789 1175 17 1
185 0 1186 1185 1185 0 1184 578 0 0 -15 1186 2687 0 1185 298 898 15 801 2728 0 1
182 797 1187 17 1183 0 707 1183 1183 0 1182 1180 0 0 -15 707 2711 0 1183 298 118
8 15 1188 2703 0 1189 298 1176 17 1189 0 1188 1189 1189 0 1179 1177 0 0 -15 1176
 2695 0 809 298 1186 17 1179 0 798 1179 1179 0 1189 1177 0 0 +15 798 2752 0 1179
 794 1190 15 1190 2753 0 583 794 0 17 583 0 1190 583 583 0 581 580 0 0 -15 1187
 2729 0 587 797 0 17 587 0 1187 587 587 0 584 20 0 0 -82 1 806 1628110967 15 733
 916 0 265 722 0 17 265 0 733 182 248 263 1191 319 0 323 +17 182 0 733 1192 265
 180 1193 330 0 313 +17 248 0 733 265 1192 246 426 424 0 1191 -17 1191 0 723 251
 323 246 265 319 0 423 -17 323 0 723 1191 262 263 1194 314 0 1193 +15 723 920 0
 262 718 0 17 262 0 723 323 251 260 1195 317 0 326 +17 1194 0 299 1196 1193 260
 323 314 0 0 -17 1193 0 299 1194 1197 263 182 330 0 0 -15 299 749 0 1193 298 119
8 17 1197 0 299 1193 1196 180 329 327 0 0 -17 1196 0 299 1197 1194 256 326 324 0
 0 -17 329 0 730 188 313 256 1197 327 0 1196 +15 730 928 0 313 726 0 17 188 0 73
0 254 329 186 258 315 0 1199 -17 313 0 730 329 254 180 1192 311 0 1197 +17 254 0
 730 313 188 252 417 415 0 1192 -17 1192 0 733 248 182 252 313 311 0 426 -17 426
 0 633 417 423 252 248 424 0 0 +17 417 0 633 420 426 186 254 415 0 0 +17 420 0 6
33 423 417 249 1199 418 0 0 +17 1199 0 727 258 1195 186 420 418 0 417 -15 727 92
4 0 258 721 0 17 258 0 727 326 1199 256 188 315 0 329 +17 1195 0 727 1199 326 24
9 262 317 0 420 -17 326 0 727 1195 258 260 1196 324 0 1194 +15 1198 199 0 1200 2
98 1201 17 1200 0 1198 1200 1200 0 340 338 0 0 -15 1201 192 0 1202 298 1203 17 1
202 0 1201 1202 1202 0 347 345 0 0 -15 1203 185 0 1204 298 1205 17 1204 0 1203 1
204 1204 0 334 332 0 0 -15 1205 178 0 1206 298 657 17 1206 0 1205 1206 1206 0 35
5 341 0 0 -17 355 0 1207 355 355 0 1206 341 0 0 +15 1207 269 0 355 635 0 17 334
 0 1208 334 334 0 1204 332 0 0 +15 1208 251 0 334 710 0 17 347 0 1209 347 347 0
 1202 345 0 0 +15 1209 233 0 347 691 0 17 340 0 1210 340 340 0 1200 338 0 0 +15
 1210 215 0 340 683 0 17 251 0 723 262 1191 249 423 421 0 1195 -15 717 250 0 643
 710 1208 17 643 0 717 643 643 0 337 308 0 0 -15 713 232 0 641 691 1209 17 641 0
 713 641 641 0 349 335 0 0 -15 711 268 0 645 635 1207 17 645 0 711 645 645 0 352
 350 0 0 -82 1 698 -75235220 15 692 214 0 639 683 1210 17 639 0 692 639 639 0 34
4 342 0 0 -82 1 688 -650706836 17 647 0 644 215 221 222 379 360 0 0 -17 215 0 64
4 670 647 213 224 388 0 377 +17 670 0 644 209 215 216 377 375 0 0 -17 209 0 644
 648 670 207 218 386 0 374 +17 648 0 644 233 209 210 374 372 0 0 -15 586 2678 0
 584 632 582 15 582 2670 0 581 632 812 19 17 100 0 1 0 9 5 0 S0 74 4 CI16 index_
map_offset0 0 1 dCCZ20 15 11 0 0 937 1211 1212 1213 934 1214 1215 1216 13 1087 2
 0 0 0 0 0 0 0 0 0 81 2 1211 130 1217 1 0 1212 0 0 0 1218 81 2 1212 134 1219 1 1
211 1213 0 0 0 1220 81 2 1213 135 1221 1 1212 1214 0 0 1222 0 81 2 1214 614 1223
 1 1213 1215 0 0 1224 0 81 2 1215 675 1225 1 1214 1216 0 0 0 1226 81 1 1216 2867
 1227 1 1215 13 0 0 1228 81 2 13 3148 1229 1 1216 2 0 0 0 0 80 2 1229 1230 1231
 9000 0 0 0 0 3 5 0 0 0 FFTFFFFFFFFFFFFFF9 1 79 16 1231 BODY_RECIPE_200180 1 122
7 1232 1233 9000 1 1 1 1 1 1 1 1 0 FFTFFFFFFFFFFFFFF1 82 1 1228 365160 79 10 123
3 BODY_MATCH80 2 1225 1234 1235 9000 0 0 0 0 3 5 0 0 0 FFTFFFFFFFFFFFFFF9 1 82 1
 1226 1 79 24 1235 BODY_IN_LIGHTWEIGHT_PERM80 2 1223 1236 1237 8004 0 0 0 0 3 5
 0 0 0 FFTFFFFFFFFFFFFFF2 3 83 1 1224 1 79 16 1237 SDL/TYSA_DENSITY80 2 1221 123
8 1239 9000 0 0 0 0 3 5 0 0 0 FFTFTTTFFTFFFFFFF10 10 98 255 6 1222 20999 -27036
 45 25289 20280 52 79 23 1239 SWIMPLICITBODYNAME_ID_U80 2 1219 1240 1241 9000 0
 0 0 0 3 5 0 0 0 FFTFFFFFFFFFFFFFF9 1 82 1 1220 168 79 30 1241 LAST_BODY_MODIFYI
NG_FEATURE_ID80 2 1217 1242 1243 9000 0 0 0 0 3 5 0 0 0 FFTFFFFFFFFFFTFFF9 1 82
 1 1218 115 79 19 1243 ENT_TIME_STAMP_200180 2 12 1244 1245 9000 0 0 0 0 3 5 0 0
 0 FFTFFFFFFFFFFFFFF9 1 82 1 14 105 79 12 1245 ATOM_ID_20011 0 
