**ABCDEFGHIJKLMNOPQRSTUVWXYZabcdefghijklmnopqrstuvwxyz**************************
**PARASOLID !"#$%&'()*+,-./:;<=>?@[\]^_`{|}~0123456789**************************
**PART1;
MC=AMD64;
MC_MODEL=Intel64 Family 6 Model 154 Stepping 3, GenuineIntel;
MC_ID=unknown;
OS=Windows_NT;
OS_RELEASE=unknown;
FRU=Parasolid Version 36.1, build 212,  6-28-2024;
APPL=SOLIDWORKS 2025-2024260;
SITE=;
USER=unknown;
FORMAT=text;
GUISE=transmit;
KEY=015 ╦½─┐¤Ó;
FILE=015 ╦½─┐¤Ó╗·Áµ;
DATE=Sat Nov 29 13:53:34 2025;
**PART2;
SCH=SCH_3601212_36001;
USFLD_SIZE=0;
**PART3;
**END_OF_HEADER*****************************************************************
T51 : TRANSMIT FILE created by modeller version 360121223 SCH_3601212_36001_1300
6231 0 12 36 CCCI7 lattice222 0 CCCI4 mesh1006 0 I8 polyline1008 0 CCCCCCCDI5 ow
ner1040 0 CCCI16 boundary_lattice222 0 CCCI13 boundary_mesh1006 0 I17 boundary_p
olyline1008 0 CCCA16 index_map_offset0 0 1 dA9 index_map82 0 A17 node_id_index_m
ap82 0 A20 schema_embedding_map82 0 A5 child12 0 A14 lowest_node_id0 0 1 dA16 me
sh_offset_data206 0 Z1 135 2 3 0 0 0 0 0 0 0 1e3 1e-8 0 4 0 1 0 1 1 5 0 6 7 0 0
 0 8 9 0 0 0 0 0 0 0 0 81 255 2 2 131 10 1 11 0 0 0 0 12 70 11 CI9 list_type0 0
 1 uI10 notransmit0 0 1 lCCCDCCDI12 finger_index0 0 1 dI12 finger_block1012 0 CZ
3 0 4 T1 0 0 10 20 1 13 13 13 255 5 31 0 1 0 14 0 0 15 0 51 255 6 30 0 16 17 0 0
 -0 .004 0 0 -1 0 .006 0 0 -1 31 255 7 25 0 18 19 0 0 +0 0 0 0 1 0 0 0 1 .006 19
 9 CCCCCCI5 frame230 0 CA5 owner12 0 Z8 9 0 1 15 0 20 0 V0 16 255 9 5 0 ?21 0 18
 19 0 0 1 17 255 21 0 22 21 21 0 23 9 0 0 +16 18 20 0 ?24 9 25 7 0 0 1 31 19 7 0
 9 26 7 0 +0 .004 0 0 1 0 0 0 1 .006 31 26 73 0 27 28 19 0 +0 0 0 0 1 0 0 0 1 .0
0315 16 27 51 0 ?29 25 0 26 0 0 1 31 28 74 0 25 0 26 0 +0 .004 0 0 1 0 0 0 1 .00
315 16 25 54 0 ?30 18 27 28 0 0 1 17 30 0 31 30 30 0 32 25 0 0 +15 255 31 60 0 3
0 33 34 17 32 0 35 32 32 0 30 25 0 0 -15 35 45 0 32 14 0 14 255 14 48 36 ?37 0 2
2 5 38 +0 0 37 0 20 81 1 36 132 39 14 40 0 0 41 42 14 37 42 41 ?16 14 43 5 17 -0
 0 16 14 20 15 22 4 0 21 14 35 50 255 38 3 0 14 44 17 0 +0 .004 0 0 1 0 0 0 1 13
 20 10 0 0 0 0 0 0 8 14 51 44 70 0 33 0 38 0 -0 .004 0 0 -1 0 .00315 0 0 -1 50 1
7 24 0 37 38 6 0 +0 0 0 0 1 0 0 0 1 14 33 57 45 ?0 16 31 5 44 +0 0 0 16 20 81 1
 45 134 39 33 46 0 41 47 48 14 16 27 47 ?33 37 49 5 6 -0 0 33 37 20 81 1 47 135
 39 16 50 0 45 0 51 15 49 26 0 23 16 52 17 23 0 49 23 23 0 21 9 0 0 -15 52 28 0
 24 16 0 17 24 0 52 24 24 0 53 18 0 0 +17 53 0 43 53 53 0 24 18 0 0 -15 43 19 0
 53 37 54 15 54 40 0 29 37 0 17 29 0 54 29 29 0 55 27 0 0 +17 55 0 34 55 55 0 29
 27 0 0 -15 34 61 0 55 33 0 80 7 CCCCCDI12 legal_owners0 17 1 lCZ1 39 56 57 9000
 1 1 1 1 1 1 1 1 0 FFFFTFTFFFFFFFFFF1 81 1 50 120 58 16 0 47 59 46 60 82 255 1 5
1 1571029145 80 1 58 0 61 8001 0 0 0 0 3 5 0 0 0 FFFFTFTFFFFFFFFFF2 81 1 59 119
 58 37 0 41 40 50 62 81 1 46 121 58 33 0 45 50 0 63 83 255 3 60 1 1 1 83 3 63 1
 1 1 81 1 41 133 39 37 59 0 36 45 64 81 1 40 118 58 14 0 36 0 59 65 83 3 62 1 1
 1 83 3 65 1 1 1 82 1 64 1572733081 79 255 15 61 SDL/TYSA_COLOUR79 14 57 SWEntUn
changed82 1 48 1566900377 82 1 42 1573257369 19 15 32 0 1 0 8 5 0 S0 74 4 CI16 i
ndex_map_offset0 0 1 dCCZ20 13 10 0 0 66 67 47 68 69 70 71 11 46 2 0 0 0 0 0 0 0
 0 0 0 81 2 66 37 72 1 0 67 0 0 0 73 81 2 67 88 74 1 66 68 0 0 0 75 81 1 68 93 7
6 1 67 69 0 0 77 81 2 69 95 78 1 68 70 0 0 79 0 81 2 70 100 80 1 69 71 0 0 0 81
 81 2 71 103 82 1 70 11 0 0 83 0 81 2 11 116 84 1 71 2 0 0 0 0 80 2 84 85 86 900
0 0 0 0 0 3 5 0 0 0 FFTFFFFFFFFFFFFFF9 1 79 16 86 BODY_RECIPE_200180 2 82 87 88
 9000 0 0 0 0 3 5 0 0 0 FFTFTTTFFTFFFFFFF10 10 98 255 6 83 20984 21488 45 25289
 20280 49 79 23 88 SWIMPLICITBODYNAME_ID_U80 2 80 89 90 9000 0 0 0 0 3 5 0 0 0 F
FTFFFFFFFFFFFFFF9 1 82 1 81 1 79 24 90 BODY_IN_LIGHTWEIGHT_PERM80 2 78 91 92 800
4 0 0 0 0 3 5 0 0 0 FFTFFFFFFFFFFFFFF2 3 83 1 79 1e3 79 16 92 SDL/TYSA_DENSITY80
 1 76 93 94 9000 1 1 1 1 1 1 1 1 0 FFTFFFFFFFFFFFFFF1 82 1 77 1531268 79 10 94 B
ODY_MATCH80 2 74 95 96 9000 0 0 0 0 3 5 0 0 0 FFTFFFFFFFFFFFFFF9 1 82 1 75 83 79
 30 96 LAST_BODY_MODIFYING_FEATURE_ID80 2 72 97 98 9000 0 0 0 0 3 5 0 0 0 FFTFFF
FFFFFFFTFFF9 1 82 1 73 128 79 19 98 ENT_TIME_STAMP_200180 2 10 99 100 9000 0 0 0
 0 3 5 0 0 0 FFTFFFFFFFFFFFFFF9 1 82 1 12 106 79 12 100 ATOM_ID_20011 0 
