**ABCDEFGHIJKLMNOPQRSTUVWXYZabcdefghijklmnopqrstuvwxyz**************************
**PARASOLID !"#$%&'()*+,-./:;<=>?@[\]^_`{|}~0123456789**************************
**PART1;
MC=AMD64;
MC_MODEL=Intel64 Family 6 Model 154 Stepping 3, GenuineIntel;
MC_ID=unknown;
OS=Windows_NT;
OS_RELEASE=unknown;
FRU=Parasolid Version 36.1, build 212,  6-28-2024;
APPL=SOLIDWORKS 2025-2024260;
SITE=;
USER=unknown;
FORMAT=text;
GUISE=transmit;
KEY=019 ·É¿Ø;
FILE=019 ·É¿Ø±£»¤;
DATE=Sat Nov 29 13:52:49 2025;
**PART2;
SCH=SCH_3601212_36001;
USFLD_SIZE=0;
**PART3;
**END_OF_HEADER*****************************************************************
T51 : TRANSMIT FILE created by modeller version 360121223 SCH_3601212_36001_1300
6231 0 12 36 CCCI7 lattice222 0 CCCI4 mesh1006 0 I8 polyline1008 0 CCCCCCCDI5 ow
ner1040 0 CCCI16 boundary_lattice222 0 CCCI13 boundary_mesh1006 0 I17 boundary_p
olyline1008 0 CCCA16 index_map_offset0 0 1 dA9 index_map82 0 A17 node_id_index_m
ap82 0 A20 schema_embedding_map82 0 A5 child12 0 A14 lowest_node_id0 0 1 dA16 me
sh_offset_data206 0 Z1 2591 2 3 0 0 0 0 0 0 0 1e3 1e-8 0 4 0 1 0 1 1 5 0 6 7 8 0
 0 9 10 11 0 0 0 0 0 0 0 81 255 2 2 2515 12 1 13 0 0 0 0 14 70 11 CI9 list_type0
 0 1 uI10 notransmit0 0 1 lCCCDCCDI12 finger_index0 0 1 dI12 finger_block1012 0
 CZ3 0 4 T1 0 0 11 20 1 15 15 13 255 5 99 0 1 0 16 0 0 17 0 51 255 6 2079 0 18 1
9 0 0 +-.018 .02610607453023915 -.008 0 0 -1 .002 -1 0 0 31 255 7 1796 0 10 20 0
 0 +-.018 .02610607453023915 0 0 0 1 1 0 0 .002 29 255 8 1616 0 11 21 0 -.015832
8612831815 -.04013854082757015 0 19 9 CCCCCCI5 frame230 0 CA5 owner12 0 Z9 33 0
 1 17 0 22 0 V0 16 255 10 1767 0 ?23 0 24 7 0 0 1 18 255 11 1614 0 25 0 26 8 ?1
 17 255 25 0 27 28 29 11 30 31 0 32 +18 26 1611 0 33 11 34 21 ?1 17 33 0 35 32 3
6 26 37 38 0 28 +18 34 1608 0 39 26 40 41 ?1 29 21 1613 0 26 41 8 -.001804962075
56736 -.0107467520116167 0 29 41 1610 0 34 42 21 -.0158328612831815 -.0401385408
2757015 .002 29 42 1607 0 40 43 41 -.00180496207556736 -.0107467520116167 .002 1
8 40 1605 0 44 34 45 42 ?1 29 43 1592 0 45 46 42 .01402789920761414 -.043 0 18 4
5 1590 0 47 40 48 43 ?1 29 46 1589 0 48 49 43 -.01402789920761412 -.043 0 18 48
 1587 0 50 45 51 46 ?1 29 49 1586 0 51 52 46 .01402789920761414 -.043 .002 18 51
 1584 0 53 48 54 49 ?1 29 52 1583 0 54 55 49 -.01402789920761412 -.043 .002 18 5
4 1581 0 56 51 57 52 ?1 29 55 1568 0 57 58 52 .001804962075567365 -.010746752011
6167 0 18 57 1566 0 59 54 60 55 ?1 29 58 1565 0 60 61 55 .0158328612831815 -.040
13854082757015 0 18 60 1563 0 62 57 63 58 ?1 29 61 1562 0 63 64 58 .001804962075
56736 -.0107467520116167 .002 18 63 1560 0 65 60 66 61 ?1 29 64 1559 0 66 67 61
 .0158328612831815 -.0401385408275701 .002 18 66 1557 0 68 63 69 64 ?1 29 67 154
4 0 69 70 64 .0158328612831815 .04013854082757015 0 18 69 1542 0 71 66 72 67 ?1
 29 70 1541 0 72 73 67 .001804962075567365 .0107467520116167 0 18 72 1539 0 74 6
9 75 70 ?1 29 73 1538 0 75 76 70 .0158328612831815 .0401385408275701 .002 18 75
 1536 0 77 72 78 73 ?1 29 76 1535 0 78 79 73 .00180496207556736 .010746752011616
7 .002 18 78 1533 0 80 75 81 76 ?1 29 79 1520 0 81 82 76 -.01402789920761412 .04
3 0 18 81 1518 0 83 78 84 79 ?1 29 82 1517 0 84 85 79 .01402789920761414 .043 0
 18 84 1515 0 86 81 87 82 ?1 29 85 1514 0 87 88 82 -.01402789920761412 .043 .002
 18 87 1512 0 89 84 90 85 ?1 29 88 1511 0 90 91 85 .01402789920761414 .043 .002
 18 90 1509 0 92 87 93 88 ?1 29 91 1496 0 93 94 88 -.00180496207556736 .01074675
20116167 0 18 93 1494 0 95 90 96 91 ?1 29 94 1493 0 96 97 91 -.0158328612831815
 .04013854082757015 0 18 96 1491 0 98 93 99 94 ?1 29 97 1490 0 99 100 94 -.00180
496207556736 .0107467520116167 .002 18 99 1488 0 101 96 102 97 ?1 29 100 1487 0
 102 103 97 -.0158328612831815 .04013854082757015 .002 18 102 1485 0 104 99 105
 100 ?1 29 103 1472 0 105 106 100 .01619503792443265 -.026967533702669 0 18 105
 1470 0 107 102 108 103 ?1 29 106 1469 0 108 109 103 .003735320535000325 -.00086
1459172429872 0 18 108 1467 0 110 105 111 106 ?1 29 109 1466 0 111 112 106 .0161
9503792443265 -.026967533702669 .002 18 111 1464 0 113 108 114 109 ?1 29 112 146
3 0 114 115 109 .00373532053500032 -.000861459172429864 .002 18 114 1461 0 116 1
11 117 112 ?1 29 115 1448 0 117 118 112 .02 .02610607453023915 0 18 117 1446 0 1
19 114 120 115 ?1 29 118 1445 0 120 121 115 .02 -.02610607453023915 0 18 120 144
3 0 122 117 123 118 ?1 29 121 1442 0 123 124 118 .02 .02610607453023915 .002 18
 123 1440 0 125 120 126 121 ?1 29 124 1439 0 126 127 121 .02 -.02610607453023915
 .002 18 126 1437 0 128 123 129 124 ?1 29 127 1424 0 129 130 124 .00373532053500
0325 .000861459172429885 0 18 129 1422 0 131 126 132 127 ?1 29 130 1421 0 132 13
3 127 .01619503792443265 .02696753370266905 0 18 132 1419 0 134 129 135 130 ?1 2
9 133 1418 0 135 136 130 .003735320535000325 .000861459172429884 .002 18 135 141
6 0 137 132 138 133 ?1 29 136 1415 0 138 139 133 .01619503792443265 .02696753370
266905 .002 18 138 1413 0 140 135 141 136 ?1 29 139 1400 0 141 142 136 -.02 -.02
610607453023915 0 18 141 1398 0 143 138 144 139 ?1 29 142 1397 0 144 145 139 -.0
2 .02610607453023915 0 18 144 1395 0 23 141 146 142 ?1 29 145 1394 0 146 147 142
 -.02 -.02610607453023915 .002 18 146 1392 0 148 144 149 145 ?1 29 147 1391 0 14
9 150 145 -.02 .02610607453023915 .002 18 149 1389 0 151 146 152 147 ?1 29 150 1
376 0 152 153 147 -.00373532053500032 -.000861459172429869 0 18 152 1374 0 154 1
49 155 150 ?1 29 153 1373 0 155 156 150 -.01619503792443265 -.026967533702669 0
 18 155 1371 0 157 152 158 153 ?1 29 156 1370 0 158 159 153 -.00373532053500032
 -.000861459172429864 .002 18 158 1368 0 160 155 161 156 ?1 29 159 1367 0 161 16
2 156 -.01619503792443265 -.026967533702669 .002 18 161 1365 0 163 158 164 159 ?
1 29 162 1352 0 164 165 159 -.01619503792443265 .02696753370266905 0 18 164 1350
 0 166 161 167 162 ?1 29 165 1349 0 167 168 162 -.003735320535000325 .0008614591
72429886 0 18 167 1347 0 169 164 170 165 ?1 29 168 1346 0 170 171 165 -.01619503
792443265 .02696753370266905 .002 18 170 1344 0 172 167 173 168 ?1 29 171 1343 0
 173 174 168 -.003735320535000325 .000861459172429886 .002 18 173 1341 0 175 170
 176 171 ?1 29 174 411 0 176 177 171 -.028 -.049 .002 18 176 409 0 178 173 179 1
74 ?1 29 177 408 0 179 180 174 -.028 .049 .002 18 179 406 0 181 176 182 177 ?1 2
9 180 405 0 182 183 177 -.025 .052 .002 18 182 403 0 184 179 185 180 ?1 29 183 4
02 0 185 186 180 .025 .052 .002 18 185 400 0 187 182 188 183 ?1 29 186 387 0 188
 189 183 .025 -.052 .002 18 188 385 0 190 185 191 186 ?1 29 189 384 0 191 192 18
6 -.025 -.052 .002 18 191 382 0 193 188 194 189 ?1 29 192 357 0 194 195 189 -.02
5 .052 0 18 194 355 0 196 191 197 192 ?1 29 195 354 0 197 198 192 .025 .052 0 18
 197 352 0 199 194 200 195 ?1 29 198 351 0 200 201 195 -.028 -.049 0 18 200 349
 0 202 197 203 198 ?1 29 201 348 0 203 204 198 -.028 .049 0 18 203 346 0 205 200
 206 201 ?1 29 204 345 0 206 207 201 .025 -.052 0 18 206 343 0 208 203 209 204 ?
1 29 207 342 0 209 210 204 -.025 -.052 0 18 209 340 0 211 206 212 207 ?1 29 210
 327 0 212 213 207 .028 .049 .002 18 212 325 0 214 209 215 210 ?1 29 213 324 0 2
15 216 210 .028 -.049 .002 18 215 322 0 217 212 218 213 ?1 29 216 321 0 218 219
 213 .028 .049 0 18 218 319 0 220 215 221 216 ?1 29 219 318 0 221 0 216 .028 -.0
49 0 18 221 316 0 222 218 0 219 ?1 17 222 0 223 224 225 221 208 226 0 227 -15 25
5 223 476 0 228 229 0 17 224 0 223 228 222 215 227 230 0 0 -17 225 0 223 222 228
 206 190 231 0 0 -17 208 0 232 233 234 206 222 226 0 235 +16 226 376 0 ?208 236
 237 238 0 0 1 17 227 0 239 240 241 221 224 230 0 234 +15 239 89 0 241 242 0 17
 240 0 239 214 227 218 234 243 0 244 +17 241 0 239 227 214 215 245 246 0 224 -16
 230 334 0 ?227 247 248 249 0 0 1 17 234 0 232 208 220 221 240 243 0 0 -15 232 4
9 0 234 250 251 17 220 0 232 234 252 218 199 247 0 240 +16 243 317 0 ?240 253 25
4 255 0 0 1 16 253 353 0 ?256 257 243 258 0 0 1 16 254 128 0 ?259 243 260 261 0
 0 1 30 255 255 74 0 243 262 258 0 +.028 .052 0 -1334402673828312e-31 1 0 30 262
 19 0 263 264 255 0 +-.028 -.052 .002 1 0 0 30 258 73 0 253 255 265 0 +-.028 .05
2 0 -1 0 0 30 265 72 0 257 258 266 0 +-.028 .052 0 1334402673828312e-31 -1 0 16
 257 347 0 ?267 268 253 265 0 0 1 30 266 71 0 268 265 269 0 +-.028 -.052 0 1 0 0
 16 268 341 0 ?235 246 257 266 0 0 1 30 269 330 0 248 266 249 0 -.028 .049 .002
 0 0 -1 16 248 328 0 ?214 230 263 269 0 0 1 30 249 336 0 230 269 270 0 +.028 -.0
49 .002 0 0 -1 31 270 360 0 247 249 271 0 -.025 .049 0 0 0 1 1 0 0 .003 16 247 3
58 0 ?220 272 230 270 0 0 1 31 271 366 0 272 270 273 0 --.025 .049 0 0 0 1 1 0 0
 .003 16 272 364 0 ?196 237 247 271 0 0 1 31 273 372 0 237 271 238 0 --.025 -.04
9 0 0 0 1 1 0 0 .003 16 237 370 0 ?202 226 272 273 0 0 1 31 238 378 0 226 273 27
4 0 -.025 -.049 0 0 0 1 1 0 0 .003 30 274 390 0 236 238 275 0 +-.025 -.052 .002
 0 0 -1 16 236 388 0 ?276 231 226 274 0 0 1 30 275 396 0 231 274 277 0 -.025 -.0
52 .002 0 0 -1 16 231 394 0 ?190 278 236 275 0 0 1 31 277 414 0 278 275 279 0 +.
025 .049 .002 0 0 1 1 0 0 .003 16 278 412 0 ?187 280 231 277 0 0 1 31 279 420 0
 280 277 281 0 +-.025 .049 .002 0 0 1 1 0 0 .003 16 280 418 0 ?181 282 278 279 0
 0 1 31 281 426 0 282 279 283 0 +-.025 -.049 .002 0 0 1 1 0 0 .003 16 282 424 0
 ?193 284 280 281 0 0 1 31 283 432 0 284 281 285 0 +.025 -.049 .002 0 0 1 1 0 0
 .003 16 284 430 0 ?217 286 282 283 0 0 1 30 285 438 0 286 283 287 0 +-.028 .049
 .002 0 0 -1 16 286 436 0 ?288 289 284 285 0 0 1 30 287 444 0 289 285 290 0 --.0
28 -.049 .002 0 0 -1 16 289 442 0 ?178 291 286 287 0 0 1 30 290 450 0 291 287 29
2 0 +.025 .052 .002 0 0 -1 16 291 448 0 ?293 294 289 290 0 0 1 30 292 456 0 294
 290 295 0 --.025 .052 .002 0 0 -1 16 294 454 0 ?184 296 291 292 0 0 1 30 295 67
5 0 296 292 297 0 +-.00270744311335104 -.001292188758644814 0 -.430729586214938
 .90248103778368 0 16 296 1348 0 ?298 299 294 295 0 0 1 30 297 679 0 299 295 300
 0 +-.02 -198595496095313e-32 0 992977480476564e-31 -1 0 16 299 1396 0 ?301 302
 296 297 0 0 1 30 300 682 0 302 297 303 0 +-.00270744311335104 .0012921887586448
14 0 .430729586214938 .90248103778368 0 16 302 1372 0 ?304 305 299 300 0 0 1 30
 303 693 0 305 300 306 0 +.02 -198595496095313e-32 0 992977480476564e-31 1 0 16
 305 1444 0 ?307 308 302 303 0 0 1 30 306 697 0 308 303 309 0 +.0027074431133510
4 -.001292188758644814 0 -.430729586214938 -.90248103778368 0 16 308 1420 0 ?310
 311 305 306 0 0 1 30 309 700 0 311 306 312 0 +.00270744311335104 .0012921887586
44814 0 .430729586214938 -.90248103778368 0 16 311 1468 0 ?313 314 308 309 0 0 1
 30 312 711 0 314 309 315 0 +0 .043 0 -1 0 0 16 314 1516 0 ?316 317 311 312 0 0
 1 30 315 715 0 317 312 318 0 +.00270744311335104 .001292188758644814 0 .4307295
86214938 -.90248103778368 0 16 317 1492 0 ?319 320 314 315 0 0 1 30 318 718 0 32
0 315 321 0 +-.00270744311335104 .001292188758644814 0 .4307295862149385 .902481
03778368 0 16 320 1540 0 ?322 323 317 318 0 0 1 30 321 729 0 323 318 324 0 +0 -.
043 0 1 0 0 16 323 1588 0 ?325 326 320 321 0 0 1 30 324 733 0 326 321 327 0 +-.0
0270744311335104 -.001292188758644814 0 -.4307295862149385 .90248103778368 0 16
 326 1564 0 ?36 328 323 324 0 0 1 30 327 736 0 328 324 329 0 +.00270744311335104
 -.001292188758644814 0 -.430729586214938 -.90248103778368 0 16 328 1612 0 ?32 3
30 326 327 0 0 1 30 329 1355 0 330 327 331 0 --.01619503792443265 .0269675337026
6905 0 0 0 1 16 330 1353 0 ?166 332 328 329 0 0 1 30 331 1361 0 332 329 333 0 +-
.003735320535000325 .000861459172429886 .002 0 0 1 16 332 1359 0 ?334 335 330 33
1 0 0 1 30 333 1379 0 335 331 336 0 +-.01619503792443265 -.026967533702669 .002
 0 0 1 16 335 1377 0 ?337 338 332 333 0 0 1 30 336 1385 0 338 333 339 0 --.00373
532053500032 -.000861459172429869 -3469446951953615e-33 0 0 1 16 338 1383 0 ?154
 340 335 336 0 0 1 30 339 1403 0 340 336 341 0 +-.02 .02610607453023915 .002 0 0
 1 16 340 1401 0 ?342 343 338 339 0 0 1 30 341 1409 0 343 339 344 0 --.02 -.0261
0607453023915 0 0 0 1 16 343 1407 0 ?143 345 340 341 0 0 1 30 344 1427 0 345 341
 346 0 -.003735320535000325 .000861459172429884 -3469446951953615e-33 0 0 1 16 3
45 1425 0 ?131 347 343 344 0 0 1 30 346 1433 0 347 344 348 0 +.01619503792443265
 .02696753370266905 .002 0 0 1 16 347 1431 0 ?349 350 345 346 0 0 1 30 348 1451
 0 350 346 351 0 +.02 -.02610607453023915 .002 0 0 1 16 350 1449 0 ?352 353 347
 348 0 0 1 30 351 1457 0 353 348 354 0 -.02 .02610607453023915 0 0 0 1 16 353 14
55 0 ?119 355 350 351 0 0 1 30 354 1475 0 355 351 356 0 +.00373532053500032 -.00
0861459172429872 .002 0 0 1 16 355 1473 0 ?357 358 353 354 0 0 1 30 356 1481 0 3
58 354 359 0 -.01619503792443265 -.026967533702669 0 0 0 1 16 358 1479 0 ?107 36
0 355 356 0 0 1 30 359 1499 0 360 356 361 0 --.00180496207556736 .01074675201161
67 -3469446951953615e-33 0 0 1 16 360 1497 0 ?95 362 358 359 0 0 1 30 361 1505 0
 362 359 363 0 +-.0158328612831815 .0401385408275701 .002 0 0 1 16 362 1503 0 ?3
64 365 360 361 0 0 1 30 363 1523 0 365 361 366 0 +.01402789920761414 .043 .002 0
 0 1 16 365 1521 0 ?367 368 362 363 0 0 1 30 366 1529 0 368 363 369 0 --.0140278
9920761412 .043 0 0 0 1 16 368 1527 0 ?83 370 365 366 0 0 1 30 369 1547 0 370 36
6 371 0 +.001804962075567365 .0107467520116167 .002 0 0 1 16 370 1545 0 ?372 373
 368 369 0 0 1 30 371 1553 0 373 369 374 0 -.0158328612831815 .0401385408275701
 0 0 0 1 16 373 1551 0 ?71 375 370 371 0 0 1 30 374 1571 0 375 371 376 0 -.00180
496207556736 -.0107467520116167 -3469446951953615e-33 0 0 1 16 375 1569 0 ?59 37
7 373 374 0 0 1 30 376 1577 0 377 374 378 0 +.0158328612831815 -.040138540827570
1 .002 0 0 1 16 377 1575 0 ?379 380 375 376 0 0 1 30 378 1595 0 380 376 381 0 +-
.01402789920761412 -.043 .002 0 0 1 16 380 1593 0 ?382 383 377 378 0 0 1 30 381
 1601 0 383 378 384 0 -.01402789920761414 -.043 0 0 0 1 16 383 1599 0 ?47 385 38
0 381 0 0 1 30 384 1619 0 385 381 386 0 +-.00180496207556736 -.0107467520116167
 .002 0 0 1 16 385 1617 0 ?387 31 383 384 0 0 1 30 386 1625 0 31 384 388 0 --.01
58328612831815 -.0401385408275701 0 0 0 1 16 31 1623 0 ?25 389 385 386 0 0 1 31
 388 1773 0 389 386 390 0 --.00554028261056769 954097911787244e-32 .002 0 0 1 1
 0 0 .002 16 389 1629 0 ?160 391 31 388 0 0 1 31 390 1774 0 391 388 392 0 +-.005
54028261056769 954097911787244e-32 0 0 0 1 1 0 0 .002 16 391 1635 0 ?169 393 389
 390 0 0 1 31 392 1775 0 393 390 394 0 --.018 -.02610607453023915 .002 0 0 1 1 0
 0 .002 16 393 1641 0 ?148 395 391 392 0 0 1 31 394 1776 0 395 392 396 0 +-.018
 -.02610607453023915 0 0 0 1 1 0 0 .002 16 395 1647 0 ?157 397 393 394 0 0 1 31
 396 1777 0 397 394 398 0 -.018 .02610607453023915 .002 0 0 1 1 0 0 .002 16 397
 1653 0 ?125 399 395 396 0 0 1 31 398 1778 0 399 396 400 0 +.018 .02610607453023
915 0 0 0 1 1 0 0 .002 16 399 1659 0 ?134 401 397 398 0 0 1 31 400 1779 0 401 39
8 402 0 -.018 -.02610607453023915 .002 0 0 1 1 0 0 .002 16 401 1665 0 ?113 403 3
99 400 0 0 1 31 402 1780 0 403 400 404 0 +.018 -.02610607453023915 0 0 0 1 1 0 0
 .002 16 403 1671 0 ?122 405 401 402 0 0 1 31 404 1781 0 405 402 406 0 -.0055402
8261056769 693889390390723e-32 .002 0 0 1 1 0 0 .002 16 405 1677 0 ?137 407 403
 404 0 0 1 31 406 1782 0 407 404 408 0 +.00554028261056769 693889390390723e-32 0
 0 0 1 1 0 0 .002 16 407 1683 0 ?110 409 405 406 0 0 1 31 408 1783 0 409 406 410
 0 --.01402789920761412 .041 .002 0 0 1 1 0 0 .002 16 409 1689 0 ?89 411 407 408
 0 0 1 31 410 1784 0 411 408 412 0 +-.01402789920761412 .041 0 0 0 1 1 0 0 .002
 16 411 1695 0 ?98 413 409 410 0 0 1 31 412 1785 0 413 410 414 0 -.0140278992076
1414 .041 .002 0 0 1 1 0 0 .002 16 413 1701 0 ?77 415 411 412 0 0 1 31 414 1786
 0 415 412 416 0 +.01402789920761414 .041 0 0 0 1 1 0 0 .002 16 415 1707 0 ?86 4
17 413 414 0 0 1 31 416 1787 0 417 414 418 0 -520417042793042e-32 .0116082111840
466 .002 0 0 1 1 0 0 .002 16 417 1713 0 ?101 419 415 416 0 0 1 31 418 1788 0 419
 416 420 0 +520417042793042e-32 .0116082111840466 0 0 0 1 1 0 0 .002 16 419 1719
 0 ?74 421 417 418 0 0 1 31 420 1789 0 421 418 422 0 -.01402789920761414 -.041 .
002 0 0 1 1 0 0 .002 16 421 1725 0 ?53 423 419 420 0 0 1 31 422 1790 0 423 420 4
24 0 +.01402789920761414 -.041 0 0 0 1 1 0 0 .002 16 423 1731 0 ?62 425 421 422
 0 0 1 31 424 1791 0 425 422 426 0 --.01402789920761412 -.041 .002 0 0 1 1 0 0 .
002 16 425 1737 0 ?39 427 423 424 0 0 1 31 426 1792 0 427 424 428 0 +-.014027899
20761412 -.041 0 0 0 1 1 0 0 .002 16 427 1743 0 ?50 429 425 426 0 0 1 31 428 179
3 0 429 426 430 0 -238524477946811e-32 -.01160821118404658 .002 0 0 1 1 0 0 .002
 16 429 1749 0 ?65 38 427 428 0 0 1 31 430 1794 0 38 428 20 0 +238524477946811e-
32 -.01160821118404658 0 0 0 1 1 0 0 .002 16 38 1755 0 ?33 24 429 430 0 0 1 31 2
0 1795 0 24 430 7 0 --.018 .02610607453023915 .002 0 0 1 1 0 0 .002 16 24 1761 0
 ?172 10 38 20 0 0 1 17 172 0 431 432 433 170 151 24 0 434 +15 431 753 0 435 16
 436 17 432 0 431 160 172 173 434 437 0 0 -17 433 0 431 172 148 149 438 439 0 0
 -17 151 0 440 441 442 149 172 24 0 342 -17 434 0 443 166 334 170 432 437 0 442
 +15 443 1062 0 444 445 0 17 166 0 443 444 434 164 442 330 0 298 +17 334 0 443 4
34 444 173 446 332 0 432 +16 437 1342 0 ?434 439 447 448 0 0 1 17 442 0 440 151
 449 170 166 330 0 0 -15 440 2068 0 449 18 0 17 449 0 440 442 441 164 23 10 0 0
 -17 441 0 440 449 151 144 342 340 0 0 -17 23 0 450 301 298 144 449 10 0 451 +15
 450 670 0 298 250 232 17 301 0 450 157 23 141 451 299 0 452 +17 298 0 450 23 16
9 164 444 296 0 449 +17 451 0 453 342 143 144 301 299 0 441 -15 453 1058 0 438 4
54 0 17 342 0 453 438 451 149 441 340 0 433 +17 143 0 453 451 438 141 455 343 0
 301 +17 438 0 453 143 342 146 433 439 0 455 +17 455 0 456 163 452 146 143 343 0
 0 -15 456 1858 0 452 457 0 17 163 0 456 458 455 161 148 393 0 337 -17 452 0 456
 455 458 141 157 395 0 0 -17 458 0 456 452 163 155 337 335 0 0 -17 157 0 450 304
 301 155 452 395 0 459 +17 304 0 450 169 157 152 459 302 0 460 +17 459 0 461 337
 154 155 304 302 0 458 -15 461 1054 0 462 463 0 17 337 0 461 462 459 161 458 335
 0 435 +17 154 0 461 459 462 152 464 338 0 304 +17 462 0 461 154 337 158 435 447
 0 464 +17 464 0 465 175 460 158 154 338 0 0 -15 465 1837 0 460 466 0 17 175 0 4
65 446 464 173 160 389 0 334 -17 460 0 465 464 446 152 169 391 0 0 -17 446 0 465
 460 175 167 334 332 0 0 -17 169 0 450 298 304 167 460 391 0 444 +17 444 0 443 3
34 166 167 298 296 0 446 -17 160 0 431 435 432 158 175 389 0 462 +17 435 0 431 1
48 160 161 462 447 0 0 -17 148 0 431 433 435 146 163 393 0 438 +16 447 1366 0 ?4
62 437 467 468 0 0 1 16 467 1606 0 ?29 447 469 470 0 0 1 30 468 1114 0 447 471 4
48 0 +-.02 -.03493983519433395 .002 .430729586214938 .90248103778368 0 30 471 11
21 0 472 473 468 0 +.01719855770638665 .043 .002 .4307295862149385 .902481037783
68 0 30 448 1113 0 437 468 474 0 +-.00332416956634061 0 .002 -.430729586214938 .
90248103778368 0 30 474 1112 0 439 448 475 0 +-.02 .034939835194334 .002 9929774
80476564e-31 -1 0 16 439 1390 0 ?438 476 437 474 0 0 1 31 475 262 0 477 474 478
 0 +.024 .048 .002 0 0 1 -1 0 0 .0016 16 477 242 0 ?479 480 476 475 0 0 1 31 478
 261 0 476 475 481 0 +.024 .048 0 0 0 1 -1 0 0 .0016 16 476 239 0 ?482 477 439 4
78 0 0 1 31 481 224 0 483 478 484 0 +.024 -.048 .002 0 0 1 -1 0 0 .0016 16 483 2
04 0 ?485 486 480 481 0 0 1 31 484 223 0 480 481 487 0 +.024 -.048 0 0 0 1 -1 0
 0 .0016 16 480 201 0 ?488 483 477 484 0 0 1 31 487 186 0 489 484 490 0 +-.024 -
.048 .002 0 0 1 1 0 0 .0016 16 489 166 0 ?491 260 486 487 0 0 1 31 490 185 0 486
 487 261 0 +-.024 -.048 0 0 0 1 1 0 0 .0016 16 486 163 0 ?492 489 483 490 0 0 1
 31 261 148 0 254 490 493 0 +-.024 .048 .002 0 0 1 1 0 0 .0016 31 493 147 0 260
 261 494 0 +-.024 .048 0 0 0 1 1 0 0 .0016 16 260 125 0 ?495 254 489 493 0 0 1 3
0 494 7 0 246 493 496 0 +.028 .052 .002 -1334402673828312e-31 1 0 16 246 323 0 ?
245 497 268 494 0 0 1 30 496 11 0 497 494 264 0 +-.028 .052 .002 -1 0 0 16 497 4
01 0 ?498 499 246 496 0 0 1 30 264 15 0 499 496 262 0 +-.028 .052 .002 133440267
3828312e-31 -1 0 16 499 407 0 ?500 263 497 264 0 0 1 17 500 0 501 193 181 176 50
2 499 0 503 +16 263 383 0 ?504 248 499 262 0 0 1 17 504 0 501 217 193 188 505 26
3 0 228 +15 501 4 0 504 16 506 17 217 0 501 245 504 215 228 284 0 241 +17 193 0
 501 504 500 191 503 282 0 505 +17 505 0 507 276 190 191 504 263 0 508 -17 228 0
 223 225 224 188 217 284 0 0 -15 507 83 0 235 509 0 17 276 0 507 235 505 209 508
 236 0 233 +17 190 0 507 505 235 188 225 231 0 504 +17 508 0 510 503 211 191 276
 236 0 0 -15 510 497 0 503 511 0 17 503 0 510 512 508 176 193 282 0 0 -17 211 0
 510 508 512 209 202 237 0 276 -17 512 0 510 211 503 200 178 289 0 0 -17 202 0 2
32 513 233 200 211 237 0 267 +17 513 0 232 196 202 203 267 257 0 0 -17 233 0 232
 202 208 209 235 268 0 0 -17 267 0 514 178 288 200 513 257 0 512 +15 514 85 0 26
7 515 0 17 178 0 514 502 267 176 512 289 0 500 +17 288 0 514 267 502 203 516 286
 0 513 +17 502 0 514 288 178 179 500 499 0 516 -17 516 0 517 518 205 179 288 286
 0 0 -15 517 518 0 518 519 0 17 518 0 517 520 516 182 181 280 0 0 -17 205 0 517
 516 520 203 196 272 0 288 -17 520 0 517 205 518 194 184 294 0 0 -17 196 0 232 2
52 513 194 205 272 0 256 +17 252 0 232 220 196 197 256 253 0 0 -17 256 0 521 184
 293 194 252 253 0 520 +15 521 87 0 256 522 0 17 184 0 521 523 256 182 520 294 0
 498 +17 293 0 521 256 523 197 524 291 0 252 +17 523 0 521 293 184 185 498 497 0
 524 -17 524 0 525 526 199 185 293 291 0 0 -15 525 539 0 526 527 0 17 526 0 525
 244 524 212 187 278 0 0 -17 199 0 525 524 244 197 220 247 0 293 -17 244 0 525 1
99 526 218 214 248 0 0 -17 214 0 239 241 240 212 244 248 0 245 +17 245 0 501 187
 217 212 241 246 0 526 +17 187 0 501 498 245 185 526 278 0 523 +17 498 0 501 181
 187 182 523 497 0 518 +17 181 0 501 500 498 179 518 280 0 502 +14 255 527 538 5
28 ?463 519 525 5 529 +0 0 463 519 22 81 1 528 2517 530 527 531 0 0 532 533 14 4
63 1051 532 ?454 527 461 5 534 -0 0 454 527 22 14 519 517 535 ?527 511 517 5 536
 +0 0 527 511 22 51 529 550 0 527 536 537 0 +.025 .049 .002 0 0 -1 .003 -1 0 0 1
3 22 34 0 0 0 0 0 0 9 16 14 16 236 538 ?250 0 539 5 540 +0 0 250 0 22 81 1 538 2
523 530 16 541 0 535 542 543 14 250 230 542 ?242 16 35 5 544 -0 0 242 16 22 15 5
39 807 0 545 16 546 50 255 540 3 0 16 547 544 0 +0 0 .002 0 0 1 1 0 0 51 547 144
 0 548 549 540 0 --.024 .048 .002 0 0 -1 .0016 -1 0 0 50 544 70 0 250 540 550 0
 +0 0 0 0 0 1 1 0 0 50 550 91 0 509 544 551 0 +-.028 -.052 .002 0 1 0 0 0 1 14 5
09 84 552 ?548 515 507 5 550 -0 0 548 515 22 50 551 92 0 515 550 553 0 +-.028 .0
52 .002 1 1334402673828314e-31 0 -1334402673828314e-31 1 0 14 515 86 554 ?509 52
2 514 5 551 -0 0 509 522 22 50 553 93 0 522 551 555 0 +-.028 .052 .002 0 -1 0 0
 0 -1 14 522 88 556 ?515 242 521 5 553 -0 0 515 242 22 50 555 94 0 242 553 557 0
 +.028 .052 .002 -1 -1334402673828314e-31 0 1334402673828314e-31 -1 0 14 242 90
 558 ?522 250 239 5 555 -0 0 522 250 22 51 557 487 0 229 555 559 0 +.025 -.049 .
002 0 0 -1 .003 -1 0 0 14 229 475 560 ?511 561 223 5 557 +0 0 511 561 22 51 559
 508 0 511 557 536 0 +-.025 -.049 .002 0 0 -1 .003 -1 0 0 14 511 496 562 ?519 22
9 510 5 559 +0 0 519 229 22 51 536 529 0 519 559 529 0 +-.025 .049 .002 0 0 -1 .
003 -1 0 0 81 1 562 2537 530 511 563 0 560 564 565 80 7 CCCCCDI12 legal_owners0
 17 1 lCZ1 530 566 567 9000 1 1 1 1 1 1 1 1 0 FFFFTFTFFFFFFFFFF1 81 3 563 2536 5
68 511 569 562 570 571 572 0 0 81 1 560 2535 530 229 570 0 558 562 573 81 1 564
 2539 530 454 571 0 562 574 575 82 255 1 565 1633484905 14 454 1055 564 ?445 463
 453 5 576 -0 0 445 463 22 81 3 571 2538 568 454 577 564 563 578 579 0 0 81 1 57
4 2541 530 445 578 0 564 580 581 82 1 575 2004353139 14 445 1059 574 ?582 454 44
3 5 583 -0 0 582 454 22 81 3 578 2540 568 445 584 574 571 585 586 0 0 81 1 580 2
543 530 582 585 0 574 587 588 82 1 581 2003566707 14 582 984 580 ?589 445 590 5
 591 -0 0 589 445 22 81 3 585 2542 568 582 592 580 578 593 594 0 0 81 1 587 2545
 530 589 593 0 580 595 596 82 1 588 2007171187 14 589 988 587 ?597 582 598 5 599
 -0 0 597 582 22 81 3 593 2544 568 589 600 587 585 601 602 0 0 81 1 595 2547 530
 597 601 0 587 603 604 82 1 596 2006712435 14 597 992 595 ?605 589 606 5 607 -0
 0 605 589 22 81 3 601 2546 568 597 608 595 593 609 610 0 0 81 1 603 2549 530 60
5 609 0 595 611 612 82 1 604 2005926003 14 605 917 603 ?613 597 614 5 615 -0 0 6
13 597 22 81 3 609 2548 568 605 616 603 601 617 618 0 0 81 1 611 2551 530 613 61
7 0 603 619 620 82 1 612 2009530483 14 613 921 611 ?621 605 622 5 623 -0 0 621 6
05 22 81 3 617 2550 568 613 624 611 609 625 626 0 0 81 1 619 2553 530 621 625 0
 611 627 628 82 1 620 2009071731 14 621 925 619 ?629 613 630 5 631 -0 0 629 613
 22 81 3 625 2552 568 621 632 619 617 633 634 0 0 81 1 627 2555 530 629 633 0 61
9 635 636 82 1 628 2008285299 14 629 850 627 ?637 621 27 5 638 -0 0 637 621 22 8
1 3 633 2554 568 629 639 627 625 640 641 0 0 81 1 635 2557 530 637 640 0 627 642
 643 82 1 636 2011889779 14 637 854 635 ?644 629 645 5 646 -0 0 644 629 22 81 3
 640 2556 568 637 647 635 633 648 649 0 0 81 1 642 2559 530 644 648 0 635 650 65
1 82 1 643 2011431027 14 644 858 642 ?466 637 652 5 653 -0 0 466 637 22 81 3 648
 2558 568 644 654 642 640 655 656 0 0 81 1 650 2561 530 466 655 0 642 657 658 82
 1 651 2010644595 14 466 1836 650 ?457 644 465 5 537 -0 0 457 644 22 81 3 655 25
60 568 466 659 650 648 660 661 0 0 81 1 657 2563 530 457 660 0 650 662 663 82 1
 658 2037842035 14 457 1857 657 ?664 466 456 5 665 -0 0 664 466 22 81 3 660 2562
 568 457 666 657 655 667 668 0 0 81 1 662 2565 530 664 667 0 657 669 670 82 1 66
3 2039808115 14 664 1878 662 ?671 457 672 5 673 -0 0 671 457 22 81 3 667 2564 56
8 664 674 662 660 675 676 0 0 81 1 669 2567 530 671 675 0 662 677 678 82 1 670 2
041774195 14 671 1899 669 ?679 664 680 5 681 -0 0 679 664 22 81 3 675 2566 568 6
71 682 669 667 683 684 0 0 81 1 677 2569 530 679 683 0 669 685 686 82 1 678 2043
740275 14 679 1920 677 ?687 671 688 5 689 -0 0 687 671 22 81 3 683 2568 568 679
 690 677 675 691 692 0 0 81 1 685 2571 530 687 691 0 677 693 694 82 1 686 204570
6355 14 687 1941 685 ?695 679 696 5 697 -0 0 695 679 22 81 3 691 2570 568 687 69
8 685 683 699 700 0 0 81 1 693 2573 530 695 699 0 685 701 702 82 1 694 204767243
5 14 695 1962 693 ?703 687 704 5 705 -0 0 703 687 22 81 3 699 2572 568 695 706 6
93 691 707 708 0 0 81 1 701 2575 530 703 707 0 693 709 710 82 1 702 2049638515 1
4 703 1983 701 ?711 695 712 5 713 -0 0 711 695 22 81 3 707 2574 568 703 714 701
 699 715 716 0 0 81 1 709 2577 530 711 715 0 701 717 718 82 1 710 2051604595 14
 711 2004 709 ?719 703 720 5 721 -0 0 719 703 22 81 3 715 2576 568 711 722 709 7
07 723 724 0 0 81 1 717 2579 530 719 723 0 709 725 726 82 1 718 2053570675 14 71
9 2025 717 ?727 711 728 5 729 -0 0 727 711 22 81 3 723 2578 568 719 730 717 715
 731 732 0 0 81 1 725 2581 530 727 731 0 717 733 734 82 1 726 2055536755 14 727
 2046 725 ?18 719 735 5 19 -0 0 18 719 22 81 3 731 2580 568 727 736 725 723 737
 738 0 0 81 1 733 2583 530 18 737 0 725 739 740 82 1 734 2057502835 14 18 2067 7
33 ?0 727 440 5 6 -0 0 0 727 22 81 3 737 2582 568 18 741 733 731 742 743 0 0 81
 1 739 2585 530 561 742 0 733 744 745 82 1 740 2059468915 14 561 245 739 ?229 74
6 747 5 748 +0 0 229 746 22 81 3 742 2584 568 561 749 739 737 750 751 0 0 81 1 7
44 2587 530 746 750 0 739 752 753 82 1 745 1291583591 14 746 207 744 ?561 754 75
5 5 756 +0 0 561 754 22 81 3 750 2586 568 746 757 744 742 758 759 0 0 81 1 752 2
589 530 754 758 0 744 760 761 82 1 753 1287520359 14 754 169 752 ?746 548 762 5
 549 +0 0 746 548 22 81 3 758 2588 568 754 763 752 750 764 765 0 0 81 1 760 2591
 530 548 764 0 752 0 766 82 1 761 1283457127 14 548 131 760 ?754 509 767 5 547 +
0 0 754 509 22 81 3 764 2590 568 548 768 760 758 0 769 0 0 82 1 766 1279328359 8
0 3 568 770 771 9000 0 0 0 0 3 5 0 0 0 FFFFTFFFFFFFFFFFF1 1 1 81 1 768 2368 772
 548 0 764 773 763 774 82 6 769 0 -355020957 31211908 0 0 0 80 1 772 0 775 8001
 0 0 0 0 3 5 0 0 0 FFFFTFTFFFFFFFFFF2 81 1 773 2367 772 509 0 776 777 768 778 81
 1 763 2369 772 754 0 758 768 757 779 83 255 3 774 .792156862745098 .81960784313
7255 .933333333333333 81 1 757 2370 772 746 0 750 763 749 780 83 3 779 .79215686
2745098 .819607843137255 .933333333333333 81 1 749 2371 772 561 0 742 757 781 78
2 83 3 780 .792156862745098 .819607843137255 .933333333333333 81 1 781 2372 772
 229 0 570 749 569 783 83 3 782 .792156862745098 .819607843137255 .9333333333333
33 81 3 570 2534 568 229 781 560 784 563 785 0 0 81 1 569 2373 772 511 0 563 781
 786 787 83 3 783 .792156862745098 .819607843137255 .933333333333333 81 1 786 23
74 772 519 0 788 569 789 790 83 3 787 .792156862745098 .819607843137255 .9333333
33333333 81 3 788 2520 568 519 786 535 791 541 792 0 0 81 1 789 2375 772 527 0 5
31 786 793 794 83 3 790 .792156862745098 .819607843137255 .933333333333333 81 3
 531 2516 568 527 789 528 0 791 795 0 0 81 1 793 2376 772 463 0 791 789 577 796
 83 3 794 .792156862745098 .819607843137255 .933333333333333 81 3 791 2518 568 4
63 793 532 531 788 797 0 0 81 1 577 2377 772 454 0 571 793 584 798 83 3 796 .792
156862745098 .819607843137255 .933333333333333 81 1 584 2378 772 445 0 578 577 5
92 799 83 3 798 .792156862745098 .819607843137255 .933333333333333 81 1 592 2379
 772 582 0 585 584 600 800 83 3 799 .792156862745098 .819607843137255 .933333333
333333 81 1 600 2380 772 589 0 593 592 608 801 83 3 800 .792156862745098 .819607
843137255 .933333333333333 81 1 608 2381 772 597 0 601 600 616 802 83 3 801 .792
156862745098 .819607843137255 .933333333333333 81 1 616 2382 772 605 0 609 608 6
24 803 83 3 802 .792156862745098 .819607843137255 .933333333333333 81 1 624 2383
 772 613 0 617 616 632 804 83 3 803 .792156862745098 .819607843137255 .933333333
333333 81 1 632 2384 772 621 0 625 624 639 805 83 3 804 .792156862745098 .819607
843137255 .933333333333333 81 1 639 2385 772 629 0 633 632 647 806 83 3 805 .792
156862745098 .819607843137255 .933333333333333 81 1 647 2386 772 637 0 640 639 6
54 807 83 3 806 .792156862745098 .819607843137255 .933333333333333 81 1 654 2387
 772 644 0 648 647 659 808 83 3 807 .792156862745098 .819607843137255 .933333333
333333 81 1 659 2388 772 466 0 655 654 666 809 83 3 808 .792156862745098 .819607
843137255 .933333333333333 81 1 666 2389 772 457 0 660 659 674 810 83 3 809 .792
156862745098 .819607843137255 .933333333333333 81 1 674 2390 772 664 0 667 666 6
82 811 83 3 810 .792156862745098 .819607843137255 .933333333333333 81 1 682 2391
 772 671 0 675 674 690 812 83 3 811 .792156862745098 .819607843137255 .933333333
333333 81 1 690 2392 772 679 0 683 682 698 813 83 3 812 .792156862745098 .819607
843137255 .933333333333333 81 1 698 2393 772 687 0 691 690 706 814 83 3 813 .792
156862745098 .819607843137255 .933333333333333 81 1 706 2394 772 695 0 699 698 7
14 815 83 3 814 .792156862745098 .819607843137255 .933333333333333 81 1 714 2395
 772 703 0 707 706 722 816 83 3 815 .792156862745098 .819607843137255 .933333333
333333 81 1 722 2396 772 711 0 715 714 730 817 83 3 816 .792156862745098 .819607
843137255 .933333333333333 81 1 730 2397 772 719 0 723 722 736 818 83 3 817 .792
156862745098 .819607843137255 .933333333333333 81 1 736 2398 772 727 0 731 730 7
41 819 83 3 818 .792156862745098 .819607843137255 .933333333333333 81 1 741 2399
 772 18 0 737 736 0 820 83 3 819 .792156862745098 .819607843137255 .933333333333
333 83 3 820 .792156862745098 .819607843137255 .933333333333333 81 1 532 2519 53
0 463 791 0 528 535 821 82 6 797 0 1259836567 31211912 0 0 0 81 1 535 2521 530 5
19 788 0 532 538 822 82 1 821 2004811891 82 1 822 1635450985 82 6 795 0 -2147452
18 31211908 0 0 0 81 3 541 2522 568 16 823 538 788 824 825 0 0 82 6 792 0 -21474
5218 31211908 0 0 0 81 1 823 2362 772 16 0 541 0 826 827 81 3 824 2524 568 250 8
26 542 541 776 828 0 0 82 6 825 0 1259836567 31211912 0 0 0 81 1 826 2363 772 25
0 0 824 823 829 830 81 1 542 2525 530 250 824 0 538 552 831 81 3 776 2526 568 50
9 773 552 824 832 833 0 0 82 6 828 0 1259836567 31211912 0 0 0 81 1 552 2527 530
 509 776 0 542 554 834 81 3 832 2528 568 515 777 554 776 835 836 0 0 82 6 833 0
 -214745218 31211908 0 0 0 81 1 777 2366 772 515 0 832 837 773 838 81 1 554 2529
 530 515 832 0 552 556 839 81 3 835 2530 568 522 837 556 832 784 840 0 0 82 6 83
6 0 -214745218 31211908 0 0 0 81 1 837 2365 772 522 0 835 829 777 841 81 1 556 2
531 530 522 835 0 554 558 842 81 3 784 2532 568 242 829 558 835 570 843 0 0 82 6
 840 0 -214745218 31211908 0 0 0 81 1 829 2364 772 242 0 784 826 837 844 81 1 55
8 2533 530 242 784 0 556 560 845 82 6 843 0 -214745218 31211908 0 0 0 82 1 845 1
302528105 83 3 844 .792156862745098 .819607843137255 .933333333333333 82 1 842 1
302265961 83 3 841 .792156862745098 .819607843137255 .933333333333333 82 1 839 1
302003817 83 3 838 .792156862745098 .819607843137255 .933333333333333 82 1 834 1
301741673 82 1 831 1876426867 83 3 830 .792156862745098 .819607843137255 .933333
333333333 83 3 827 .792156862745098 .819607843137255 .933333333333333 82 6 785 0
 -214745218 31211908 0 0 0 83 3 778 .792156862745098 .819607843137255 .933333333
333333 79 255 15 775 SDL/TYSA_COLOUR79 18 771 DOWNSTREAM_FACE_ID15 767 134 0 259
 548 846 17 259 0 767 259 259 0 847 254 0 0 +15 846 135 0 848 548 0 17 848 0 846
 848 848 0 495 260 0 0 -17 495 0 251 495 495 0 848 260 0 0 +15 251 114 0 495 250
 849 15 849 152 0 492 250 850 17 492 0 849 492 492 0 851 486 0 0 +15 850 190 0 4
88 250 852 17 488 0 850 488 488 0 853 480 0 0 +15 852 228 0 482 250 0 17 482 0 8
52 482 482 0 854 476 0 0 +17 854 0 855 854 854 0 482 476 0 0 -15 855 249 0 854 5
61 0 17 853 0 856 853 853 0 488 480 0 0 -15 856 211 0 853 746 0 17 851 0 857 851
 851 0 492 486 0 0 -15 857 173 0 851 754 0 17 847 0 858 847 847 0 259 254 0 0 -1
5 858 119 0 847 16 501 82 6 765 0 -355020957 31211908 0 0 0 15 762 172 0 491 754
 857 51 549 182 0 754 756 547 0 --.024 -.048 .002 0 0 -1 .0016 -1 0 0 51 756 220
 0 746 748 549 0 -.024 -.048 .002 0 0 -1 .0016 -1 0 0 51 748 258 0 561 534 756 0
 -.024 .048 .002 0 0 -1 .0016 -1 0 0 50 534 1089 0 463 583 748 0 +-.02 -.0349398
3519433395 -.008 .90248103778368 -.430729586214938 0 .430729586214938 .902481037
78368 0 50 583 1090 0 445 576 534 0 +-.00332416956634061 0 -.008 .90248103778368
 .430729586214938 0 -.430729586214938 .90248103778368 0 50 576 1091 0 454 623 58
3 0 +-.02 .034939835194334 -.008 -1 -992977480476564e-31 0 992977480476564e-31 -
1 0 50 623 1096 0 613 631 576 0 +1409462824231156e-33 .00696492671042795 -.008 -
.90248103778368 -.430729586214938 0 .430729586214938 -.90248103778368 0 50 631 1
097 0 621 615 623 0 +-.01719855770638665 .043 -.008 0 1 0 0 0 1 50 615 1098 0 60
5 646 631 0 +.01719855770638665 .043 -.008 .90248103778368 -.4307295862149385 0
 .4307295862149385 .90248103778368 0 50 646 1101 0 637 653 615 0 +.0171985577063
8665 -.043 -.008 .90248103778368 .4307295862149385 0 -.4307295862149385 .9024810
3778368 0 50 653 1102 0 644 638 646 0 +-.01719855770638665 -.043 -.008 0 -1 0 0
 0 -1 50 638 1103 0 629 599 653 0 +1409462824231156e-33 -.00696492671042795 -.00
8 -.90248103778368 .430729586214938 0 -.430729586214938 -.90248103778368 0 50 59
9 1106 0 589 607 638 0 +.00332416956634061 0 -.008 -.90248103778368 .43072958621
4938 0 -.430729586214938 -.90248103778368 0 50 607 1107 0 597 591 599 0 +.02 .03
4939835194334 -.008 1 -992977480476564e-31 0 992977480476564e-31 1 0 50 591 1108
 0 582 0 607 0 +.02 -.03493983519433395 -.008 -.90248103778368 -.430729586214938
 0 .430729586214938 -.90248103778368 0 17 491 0 762 491 491 0 859 489 0 0 +17 85
9 0 506 859 859 0 491 489 0 0 -15 506 157 0 859 16 860 15 860 233 0 861 16 0 17
 861 0 860 861 861 0 479 477 0 0 -17 479 0 747 479 479 0 861 477 0 0 +15 747 248
 0 479 561 855 82 6 759 0 -355020957 31211908 0 0 0 15 755 210 0 485 746 856 17
 485 0 755 485 485 0 862 483 0 0 +17 862 0 436 862 862 0 485 483 0 0 -15 436 195
 0 862 16 858 82 6 751 0 -355020957 31211908 0 0 0 82 6 743 0 1259836567 3121191
2 0 0 0 82 6 738 0 1259836567 31211912 0 0 0 15 735 2047 0 37 727 0 51 19 2058 0
 727 729 6 0 +238524477946811e-32 -.01160821118404658 -.008 0 0 -1 .002 -1 0 0 5
1 729 2037 0 719 721 19 0 +-.01402789920761412 -.041 -.008 0 0 -1 .002 -1 0 0 51
 721 2016 0 711 713 729 0 +.01402789920761414 -.041 -.008 0 0 -1 .002 -1 0 0 51
 713 1995 0 703 705 721 0 +520417042793042e-32 .0116082111840466 -.008 0 0 -1 .0
02 -1 0 0 51 705 1974 0 695 697 713 0 +.01402789920761414 .041 -.008 0 0 -1 .002
 -1 0 0 51 697 1953 0 687 689 705 0 +-.01402789920761412 .041 -.008 0 0 -1 .002
 -1 0 0 51 689 1932 0 679 681 697 0 +.00554028261056769 693889390390723e-32 -.00
8 0 0 -1 .002 -1 0 0 51 681 1911 0 671 673 689 0 +.018 -.02610607453023915 -.008
 0 0 -1 .002 -1 0 0 51 673 1890 0 664 665 681 0 +.018 .02610607453023915 -.008 0
 0 -1 .002 -1 0 0 51 665 1869 0 457 537 673 0 +-.018 -.02610607453023915 -.008 0
 0 -1 .002 -1 0 0 51 537 1848 0 466 529 665 0 +-.00554028261056769 9540979117872
44e-32 -.008 0 0 -1 .002 -1 0 0 17 37 0 735 863 864 57 33 38 0 0 -17 863 0 735 4
4 37 63 59 375 0 0 -17 864 0 735 37 44 26 387 385 0 0 -17 44 0 735 864 863 40 65
 429 0 387 -17 387 0 27 29 28 40 864 385 0 545 +15 27 853 0 29 629 0 17 29 0 27
 25 387 34 545 467 0 30 +17 28 0 27 387 25 26 32 328 0 864 -17 545 0 539 65 39 4
0 29 467 0 0 -17 65 0 539 865 545 63 44 429 0 866 +17 39 0 539 545 867 34 56 425
 0 29 +17 867 0 539 39 53 54 868 469 0 0 -17 56 0 728 869 30 54 39 425 0 382 -15
 728 2026 0 870 719 0 17 869 0 728 870 56 48 382 380 0 0 -17 30 0 728 56 870 34
 25 31 0 0 -17 382 0 652 868 871 54 869 380 0 867 +15 652 861 0 868 644 0 17 868
 0 652 47 382 51 867 469 0 872 +17 871 0 652 382 47 48 325 323 0 869 -17 47 0 65
2 871 868 45 872 383 0 325 +17 325 0 35 62 50 45 871 323 0 873 +15 35 724 0 325
 250 874 17 62 0 35 36 325 60 873 423 0 875 +17 50 0 35 325 32 48 870 427 0 871
 +17 873 0 720 872 876 45 62 423 0 0 -15 720 2005 0 873 711 0 17 872 0 720 68 87
3 51 47 383 0 0 -17 876 0 720 873 68 60 379 377 0 0 -17 68 0 720 876 872 66 53 4
21 0 379 -17 379 0 645 866 875 66 876 377 0 865 +15 645 857 0 875 637 0 17 866 0
 645 59 379 63 865 877 0 863 +17 875 0 645 379 59 60 36 326 0 876 -17 865 0 539
 53 65 66 866 877 0 0 -17 53 0 539 867 865 51 68 421 0 868 +16 877 1558 0 ?866 4
69 472 878 0 0 1 16 469 1582 0 ?868 467 877 879 0 0 1 16 472 1534 0 ?880 877 881
 471 0 0 1 30 878 1132 0 877 882 879 0 +.01719855770638665 -.043 .002 -.43072958
62149385 .90248103778368 0 30 882 1139 0 883 884 878 0 +.02 -.03493983519433395
 .002 .430729586214938 -.90248103778368 0 30 879 1131 0 469 878 470 0 +-.0171985
5770638665 -.043 .002 1 0 0 30 470 1130 0 467 879 885 0 +1409462824231156e-33 -.
00696492671042795 .002 -.430729586214938 -.90248103778368 0 30 885 1123 0 886 47
0 473 0 +1409462824231156e-33 .00696492671042795 .002 .430729586214938 -.9024810
3778368 0 16 886 1486 0 ?887 881 883 885 0 0 1 30 473 1122 0 881 885 471 0 +-.01
719855770638665 .043 .002 -1 0 0 16 881 1510 0 ?888 472 886 473 0 0 1 17 888 0 6
30 83 367 87 889 881 0 890 +15 630 928 0 888 621 0 17 83 0 630 891 888 81 890 36
8 0 316 +17 367 0 630 888 891 90 892 365 0 889 +17 889 0 546 77 89 90 888 881 0
 0 -17 890 0 696 104 893 87 83 368 0 0 -15 696 1942 0 893 687 0 17 104 0 696 894
 890 102 89 409 0 364 -17 893 0 696 890 894 81 98 411 0 0 -17 894 0 696 893 104
 96 364 362 0 0 -17 98 0 874 319 316 96 893 411 0 895 +15 874 706 0 316 250 896
 17 319 0 874 74 98 93 895 317 0 897 +17 316 0 874 98 86 81 891 314 0 893 +17 89
5 0 622 364 95 96 319 317 0 894 -15 622 924 0 895 613 0 17 364 0 622 887 895 102
 894 362 0 898 +17 95 0 622 895 887 93 899 360 0 319 +17 887 0 622 95 364 99 898
 886 0 899 +17 899 0 712 80 897 99 95 360 0 0 -15 712 1984 0 897 703 0 17 80 0 7
12 900 899 78 101 417 0 372 -17 897 0 712 899 900 93 74 419 0 0 -17 900 0 712 89
7 80 72 372 370 0 0 -17 74 0 874 322 319 72 897 419 0 901 +17 322 0 874 86 74 69
 901 320 0 902 +17 901 0 614 372 71 72 322 320 0 900 -15 614 920 0 880 605 0 17
 372 0 614 880 901 78 900 370 0 903 +17 71 0 614 901 880 69 904 373 0 322 +17 88
0 0 614 71 372 75 903 472 0 904 +17 904 0 704 92 902 75 71 373 0 0 -15 704 1963
 0 902 695 0 17 92 0 704 892 904 90 77 413 0 367 -17 902 0 704 904 892 69 86 415
 0 0 -17 892 0 704 902 92 84 367 365 0 0 -17 86 0 874 316 322 84 902 415 0 891 +
17 891 0 630 367 83 84 316 314 0 892 -17 77 0 546 903 889 75 92 413 0 880 +15 54
6 789 0 903 16 905 17 903 0 546 101 77 78 880 472 0 0 -17 101 0 546 898 903 99 8
0 417 0 887 +17 898 0 546 89 101 102 887 886 0 0 -17 89 0 546 889 898 87 104 409
 0 888 +15 905 771 0 906 16 431 17 906 0 905 137 113 114 907 883 0 0 -17 137 0 9
05 908 906 135 116 405 0 909 +17 113 0 905 906 910 111 128 401 0 907 +17 907 0 5
90 107 357 111 906 883 0 911 +16 883 1462 0 ?907 886 912 882 0 0 1 16 912 1438 0
 ?913 883 914 884 0 0 1 17 913 0 606 119 352 123 910 912 0 915 +16 914 1414 0 ?9
09 912 0 916 0 0 1 30 884 1140 0 912 916 882 0 +.02 .034939835194334 .002 992977
480476564e-31 1 0 30 916 1141 0 914 0 884 0 +.00332416956634061 0 .002 -.4307295
86214938 -.90248103778368 0 17 909 0 598 131 349 135 908 914 0 917 +15 598 991 0
 918 589 0 17 131 0 598 918 909 129 917 345 0 310 +17 349 0 598 909 918 138 919
 347 0 908 +17 908 0 905 125 137 138 909 914 0 0 -17 917 0 688 116 920 135 131 3
45 0 0 -15 688 1921 0 920 679 0 17 116 0 688 921 917 114 137 405 0 357 -17 920 0
 688 917 921 129 110 407 0 0 -17 921 0 688 920 116 108 357 355 0 0 -17 110 0 896
 313 310 108 920 407 0 922 +15 896 688 0 307 250 450 17 313 0 896 122 110 105 92
2 311 0 923 +17 310 0 896 110 134 129 918 308 0 920 +17 922 0 590 357 107 108 31
3 311 0 921 -15 590 987 0 907 582 0 17 357 0 590 907 922 114 921 355 0 906 +17 1
07 0 590 922 907 105 911 358 0 313 +17 911 0 680 128 923 111 107 358 0 0 -15 680
 1900 0 923 671 0 17 128 0 680 924 911 126 113 401 0 352 -17 923 0 680 911 924 1
05 122 403 0 0 -17 924 0 680 923 128 120 352 350 0 0 -17 122 0 896 307 313 120 9
23 403 0 925 +17 307 0 896 134 122 117 925 305 0 926 +17 925 0 606 352 119 120 3
07 305 0 924 -15 606 995 0 913 597 0 17 352 0 606 913 925 126 924 350 0 910 +17
 119 0 606 925 913 117 915 353 0 307 +17 915 0 672 140 926 123 119 353 0 0 -15 6
72 1879 0 926 664 0 17 140 0 672 919 915 138 125 397 0 349 -17 926 0 672 915 919
 117 134 399 0 0 -17 919 0 672 926 140 132 349 347 0 0 -17 134 0 896 310 307 132
 926 399 0 918 +17 918 0 598 349 131 132 310 308 0 919 -17 125 0 905 910 908 123
 140 397 0 913 +17 910 0 905 113 125 126 913 912 0 0 -17 59 0 645 875 866 57 863
 375 0 36 +17 36 0 35 33 62 57 875 326 0 37 +17 32 0 35 50 33 11 28 328 0 870 +1
7 870 0 728 30 869 11 50 427 0 0 -82 6 732 0 1259836567 31211912 0 0 0 82 6 724
 0 1259836567 31211912 0 0 0 82 6 716 0 1259836567 31211912 0 0 0 82 6 708 0 125
9836567 31211912 0 0 0 82 6 700 0 1259836567 31211912 0 0 0 82 6 692 0 125983656
7 31211912 0 0 0 82 6 684 0 1259836567 31211912 0 0 0 82 6 676 0 1259836567 3121
1912 0 0 0 82 6 668 0 1259836567 31211912 0 0 0 82 6 661 0 1259836567 31211912 0
 0 0 82 6 656 0 1259836567 31211912 0 0 0 82 6 649 0 1259836567 31211912 0 0 0 8
2 6 641 0 1259836567 31211912 0 0 0 82 6 634 0 1259836567 31211912 0 0 0 82 6 62
6 0 1259836567 31211912 0 0 0 82 6 618 0 1259836567 31211912 0 0 0 82 6 610 0 12
59836567 31211912 0 0 0 82 6 602 0 1259836567 31211912 0 0 0 82 6 594 0 12598365
67 31211912 0 0 0 82 6 586 0 1259836567 31211912 0 0 0 82 6 579 0 1259836567 312
11912 0 0 0 82 1 573 1631518825 82 6 572 0 -214745218 31211908 0 0 0 79 14 567 S
WEntUnchanged82 1 543 1876295795 82 1 533 1637417065 17 235 0 507 190 276 206 23
3 268 0 225 +19 17 100 0 1 0 9 5 0 S0 74 4 CI16 index_map_offset0 0 1 dCCZ20 15
 11 0 0 927 764 928 929 760 930 931 932 13 741 2 0 0 0 0 0 0 0 0 0 81 2 927 111
 933 1 0 928 0 0 0 934 81 2 928 298 935 1 927 929 0 0 0 936 81 2 929 299 937 1 9
28 930 0 0 938 0 81 2 930 594 939 1 929 931 0 0 940 0 81 2 931 655 941 1 930 932
 0 0 0 942 81 1 932 2147 943 1 931 13 0 0 944 81 2 13 2360 945 1 932 2 0 0 0 0 8
0 2 945 946 947 9000 0 0 0 0 3 5 0 0 0 FFTFFFFFFFFFFFFFF9 1 79 16 947 BODY_RECIP
E_200180 1 943 948 949 9000 1 1 1 1 1 1 1 1 0 FFTFFFFFFFFFFFFFF1 82 1 944 474706
7 79 10 949 BODY_MATCH80 2 941 950 951 9000 0 0 0 0 3 5 0 0 0 FFTFFFFFFFFFFFFFF9
 1 82 1 942 1 79 24 951 BODY_IN_LIGHTWEIGHT_PERM80 2 939 952 953 8004 0 0 0 0 3
 5 0 0 0 FFTFFFFFFFFFFFFFF2 3 83 1 940 1 79 16 953 SDL/TYSA_DENSITY80 2 937 954
 955 9000 0 0 0 0 3 5 0 0 0 FFTFTTTFFTFFFFFFF10 10 98 255 3 938 22278 -30254 50
 79 23 955 SWIMPLICITBODYNAME_ID_U80 2 935 956 957 9000 0 0 0 0 3 5 0 0 0 FFTFFF
FFFFFFFFFFF9 1 82 1 936 97 79 30 957 LAST_BODY_MODIFYING_FEATURE_ID80 2 933 958
 959 9000 0 0 0 0 3 5 0 0 0 FFTFFFFFFFFFFTFFF9 1 82 1 934 114 79 19 959 ENT_TIME
_STAMP_200180 2 12 960 961 9000 0 0 0 0 3 5 0 0 0 FFTFFFFFFFFFFFFFF9 1 82 1 14 1
02 79 12 961 ATOM_ID_20011 0 
